<svg xmlns="http://www.w3.org/2000/svg" xmlns:xlink="http://www.w3.org/1999/xlink" version="1.1" x="0px" y="0px" viewBox="0 0 100 125" style="enable-background:new 0 0 100 100;" xml:space="preserve"><style type="text/css">
	.st0{display:none; fill:"#00077B"}
	.st1{display:inline; fill:"#00077B"}
</style><path path="#00077B"  class="st0" d="M72.96,76.81c-0.59-0.58-1.37-1.08-2.38-1.18c0.25-0.58,0.41-1.2,0.43-1.83c0.03-1.16-0.43-2.25-1.33-3.14  c-0.88-0.87-1.81-1.39-2.78-1.57c0.2-0.54,0.32-1.1,0.33-1.69c0.02-1.21-0.46-2.31-1.43-3.27c-0.55-0.54-1.14-0.93-1.77-1.17  c0.72-0.68,1.42-1.34,2.01-1.94c0.97-0.98,1.27-2.23,0.85-3.54c-0.74-2.3-3.51-4.14-5.09-4.4c-2.93-0.48-7.45,1.48-9.85,3.33  l-9.77-36.46l5.43,1.23c0.49,0.11,0.99-0.07,1.31-0.45c0.31-0.39,0.38-0.92,0.17-1.37l-2.95-6.4l3.6-6.06  c0.26-0.43,0.24-0.97-0.03-1.38c-0.27-0.42-0.76-0.65-1.25-0.59l-7,0.83l-4.65-5.3c-0.33-0.37-0.84-0.53-1.33-0.4  c-0.48,0.13-0.85,0.52-0.95,1.01l-1.38,6.91l-6.48,2.78c-0.46,0.2-0.77,0.64-0.79,1.14c-0.03,0.5,0.23,0.97,0.67,1.21l6.15,3.45  l0.65,7.02c0.05,0.5,0.37,0.92,0.84,1.1c0.15,0.06,0.31,0.09,0.47,0.09c0.32,0,0.64-0.12,0.89-0.35l4.09-3.78l8.84,33.01  c-1.57-0.78-3.94-0.65-6.16,2.06c-3.02,3.7-7.3,17.04-7.63,20.16c-0.24,2.26-1.66,5.74-2.8,6.89c-0.25,0.26-0.39,0.61-0.38,0.97  c0.01,0.36,0.17,0.7,0.45,0.94l17.08,15.01c0.25,0.22,0.56,0.33,0.87,0.33c0.36,0,0.71-0.15,0.97-0.43c1.67-1.84,4.3-3.33,7.34-5.05  c0.35-0.2,0.71-0.4,1.07-0.61l1.37,5.11c0.16,0.59,0.69,0.97,1.27,0.97c0.11,0,0.23-0.01,0.34-0.05c0.7-0.19,1.11-0.91,0.93-1.61  l-1.56-5.81c2.52-1.52,5.11-3.28,7.48-5.58c2.62-2.54,4.98-5.03,4.99-7.48C74.11,78.48,73.71,77.55,72.96,76.81z M35.27,15.62  c-0.04-0.43-0.29-0.81-0.67-1.02l-4.43-2.48l4.67-2.01c0.4-0.17,0.68-0.53,0.77-0.95l0.99-4.98l3.35,3.82  c0.28,0.32,0.71,0.49,1.14,0.44l5.05-0.6l-2.6,4.37c-0.22,0.37-0.24,0.83-0.06,1.22l2.13,4.61l-4.96-1.12c-0.01,0-0.03,0-0.04,0  c-0.07-0.01-0.15-0.02-0.23-0.02c-0.02,0-0.05,0-0.07,0c-0.1,0-0.2,0.02-0.29,0.04c-0.1,0.03-0.19,0.06-0.27,0.11  c-0.02,0.01-0.04,0.03-0.07,0.04c-0.06,0.04-0.12,0.08-0.18,0.13c-0.01,0.01-0.02,0.02-0.03,0.03l-3.73,3.45L35.27,15.62z M51,62.98  c-0.85,0.65-1.89,1.27-3.1,1.72c0.37-0.85,1.02-2.15,2.12-3.99c0.09-0.15,0.17-0.31,0.25-0.46L51,62.98z M67.28,85.08  c-3.22,3.12-7.01,5.27-10.36,7.16c-2.65,1.5-5.18,2.93-7.07,4.65L34.63,83.51c1.34-2.02,2.45-5.24,2.68-7.37  c0.3-2.77,4.4-15.54,7.05-18.78c1.11-1.36,2.31-1.85,3.12-1.28c0.77,0.54,1.09,1.92,0.28,3.28c-3.38,5.67-3.12,6.91-2.56,7.69  c0.39,0.55,1.06,0.79,1.79,0.63c3.39-0.72,6.7-2.94,8.84-5.93c0.42-0.59,0.29-1.41-0.3-1.83c-0.59-0.42-1.41-0.29-1.83,0.3  c-0.12,0.17-0.3,0.41-0.54,0.69l-0.46-1.72c0.09-0.06,0.18-0.12,0.26-0.2c1.52-1.52,6.08-3.71,8.42-3.32  c0.76,0.12,2.63,1.42,3.02,2.62c0.12,0.37,0.06,0.61-0.21,0.89c-1.33,1.34-3.24,3.08-4.77,4.48c-2.79,2.54-2.79,2.54-2.8,3.19  c-0.01,0.36,0.13,0.71,0.39,0.97c0.25,0.25,0.61,0.39,0.95,0.38c0.59-0.01,0.9-0.35,1.27-0.74c0.54-0.58,1.99-2.12,3.31-2.14  c0.5-0.03,0.97,0.21,1.44,0.68c0.59,0.59,0.65,1.06,0.65,1.37c-0.01,1.03-0.91,2.18-1.76,3.07c-0.29,0.26-0.55,0.52-0.78,0.77  c-0.08,0.07-0.15,0.14-0.21,0.2c-0.65,0.61-1,0.94-1.01,1.58c0,0.36,0.14,0.72,0.4,0.97c0.26,0.26,0.64,0.4,1,0.38  c0.63-0.03,0.96-0.42,1.33-0.87c0.1-0.12,0.23-0.28,0.38-0.44c0.21-0.2,0.45-0.43,0.69-0.68c0.44-0.37,0.95-0.68,1.46-0.7  c0.53-0.02,1.11,0.27,1.72,0.87c0.51,0.51,0.56,0.93,0.55,1.21c-0.04,1.57-2.27,3.53-3.1,4.27c-0.58,0.52-0.94,0.83-0.96,1.45  c-0.01,0.36,0.13,0.72,0.39,0.98c0.42,0.41,1.13,0.71,2.14-0.24c2.66-2.5,3.7-2.06,4.26-1.51c0.32,0.32,0.36,0.58,0.36,0.79  C71.47,81.02,68.75,83.66,67.28,85.08z"/><path path="#00077B" class="st0" d="M69.54,77.52c-0.57-0.57-1.33-1.04-2.3-1.14c0.24-0.57,0.4-1.16,0.41-1.78c0.03-1.13-0.41-2.18-1.29-3.05  c-0.85-0.84-1.75-1.35-2.69-1.52c0.19-0.52,0.31-1.07,0.32-1.63c0.02-1.18-0.45-2.24-1.38-3.17c-0.53-0.53-1.11-0.91-1.71-1.13  c0.7-0.66,1.37-1.3,1.95-1.88c0.97-0.98,1.36-2.32,1.09-3.77c-0.42-2.28-2.36-4.4-3.99-5.13c-1.7-0.76-5.13-0.39-7.22,0.11  l-0.89-3.62c-0.01-0.04-0.01-0.09-0.02-0.13c-0.01-0.04-0.03-0.08-0.04-0.12L40.29,2.91c-0.24-0.99-0.86-1.82-1.73-2.35  c-0.87-0.53-1.9-0.69-2.89-0.44l-0.27,0.07c-0.99,0.24-1.83,0.86-2.35,1.73c-0.53,0.87-0.68,1.9-0.44,2.89L44.9,54.74  c-1.45-0.31-3.3,0.17-5.06,2.32c-2.93,3.58-7.07,16.52-7.4,19.55c-0.23,2.19-1.61,5.56-2.72,6.68c-0.25,0.25-0.38,0.59-0.37,0.94  c0.01,0.35,0.17,0.68,0.43,0.91l16.56,14.55c0.24,0.21,0.54,0.32,0.84,0.32c0.35,0,0.69-0.14,0.94-0.42  c1.62-1.78,4.17-3.22,7.12-4.89c3.37-1.91,7.2-4.08,10.56-7.33c2.54-2.46,4.83-4.87,4.84-7.26C70.64,79.13,70.26,78.24,69.54,77.52z   M49.48,62.72L46.9,52.2l2.74-0.67l2.15,8.74c0.01,0.04,0.02,0.07,0.04,0.1C51.1,61.16,50.31,61.97,49.48,62.72z M35.23,3.22  c0.18-0.29,0.45-0.5,0.78-0.58l0.27-0.07c0.33-0.08,0.67-0.03,0.96,0.15c0.29,0.18,0.5,0.45,0.58,0.78l11.2,45.54l-2.74,0.67  L35.09,4.19C35.01,3.86,35.06,3.51,35.23,3.22z M47.3,64.5c-0.67,0.48-1.35,0.89-2.03,1.19c0.31-0.7,0.81-1.7,1.58-3.04L47.3,64.5z   M64.03,85.53c-3.12,3.03-6.8,5.11-10.04,6.94c-2.57,1.46-5.02,2.84-6.86,4.51L32.37,84.02c1.3-1.96,2.38-5.08,2.6-7.15  c0.29-2.68,4.27-15.07,6.84-18.21c1.08-1.32,2.24-1.8,3.02-1.25c0.75,0.53,1.06,1.86,0.27,3.18c-3.28,5.5-3.03,6.7-2.49,7.45  c0.38,0.53,1.03,0.76,1.73,0.61c4.01-0.85,7.84-4.79,10.73-8.13c0.46-0.53,0.4-1.33-0.13-1.79c-0.28-0.25-0.65-0.34-1-0.3  l-0.63-2.56c1.76-0.42,4.63-0.67,5.57-0.25c0.99,0.44,2.28,1.94,2.53,3.27c0.16,0.84-0.15,1.27-0.4,1.51  c-1.29,1.3-3.14,2.98-4.63,4.34c-2.71,2.46-2.71,2.46-2.72,3.1c-0.01,0.35,0.13,0.69,0.38,0.94c0.24,0.24,0.58,0.37,0.93,0.37  c0.57-0.01,0.88-0.34,1.23-0.71c0.53-0.56,1.93-2.05,3.21-2.08c0.01,0,0.02,0,0.03,0c0.47,0,0.92,0.22,1.36,0.66  c0.57,0.57,0.63,1.03,0.63,1.33c-0.01,1-0.89,2.12-1.7,2.97c-0.29,0.25-0.54,0.51-0.76,0.75c-0.07,0.07-0.14,0.13-0.2,0.19  c-0.63,0.59-0.97,0.91-0.98,1.53c0,0.34,0.14,0.7,0.38,0.94c0.25,0.25,0.62,0.38,0.97,0.37c0.61-0.03,0.93-0.4,1.29-0.84  c0.1-0.12,0.23-0.27,0.37-0.43c0.21-0.2,0.44-0.42,0.67-0.66c0.43-0.36,0.92-0.65,1.42-0.68c0.52-0.02,1.08,0.26,1.66,0.84  c0.5,0.49,0.54,0.9,0.54,1.17c-0.04,1.52-2.2,3.42-3.01,4.14c-0.57,0.5-0.91,0.8-0.93,1.4c-0.01,0.35,0.13,0.7,0.38,0.95  c0.4,0.4,1.09,0.68,2.07-0.24c2.58-2.42,3.59-1.99,4.13-1.46c0.31,0.31,0.35,0.56,0.35,0.76C68.09,81.6,65.45,84.16,64.03,85.53z"/><path path="#00077B" class="st0" d="M72.23,79.63c-1.77-2.52-4.34-4.31-7.3-5.08l-1.34-4.98c0.67-0.56,1.34-1.14,1.99-1.77  c2.8-2.72,5.32-5.37,5.33-8c0.01-1.07-0.42-2.05-1.22-2.85c-0.63-0.62-1.47-1.15-2.54-1.26c0.27-0.62,0.44-1.28,0.46-1.96  c0.03-1.24-0.46-2.4-1.42-3.36c-0.94-0.93-1.93-1.49-2.97-1.67c0.22-0.57,0.35-1.18,0.36-1.8c0.02-1.3-0.5-2.47-1.52-3.49  c-0.66-0.66-1.38-1.1-2.15-1.34c1.36-1.33,2.7-2.63,3.64-3.57c0.67-0.68,1.37-1.88,0.9-3.77c-0.67-2.74-3.67-5.78-4.91-6.17  c-1.18-0.37-4.9-0.42-6.96-0.21l-1.76-6.63c4.06-4.41,4.56-11.22,1.09-16.18c-2.78-3.97-7.5-6.05-12.32-5.41  c-0.49,0.06-0.9,0.38-1.1,0.83c-0.2,0.45-0.15,0.97,0.14,1.37l3.81,5.45l-1.91,4.09l-4.5,0.39l-3.81-5.45  c-0.28-0.4-0.75-0.63-1.24-0.59c-0.49,0.03-0.92,0.32-1.15,0.75c-2.25,4.31-1.92,9.45,0.87,13.42c1.78,2.54,4.36,4.33,7.35,5.1  l1.63,6.15c-1.47-0.19-3.21,0.42-4.67,2.58c-2.92,4.32-5.85,18.53-6.19,21.73c-0.26,2.41-1.77,6.13-3,7.37  c-0.27,0.27-0.42,0.65-0.41,1.03c0.01,0.39,0.19,0.75,0.48,1l18.25,16.04c0.27,0.23,0.6,0.35,0.92,0.35c0.38,0,0.76-0.15,1.04-0.46  c1.38-1.52,3.38-2.82,5.72-4.18l0.31,1.17c-4.1,4.41-4.62,11.24-1.12,16.22c2.45,3.5,6.4,5.52,10.59,5.52  c0.57,0,1.15-0.04,1.73-0.11c0.49-0.06,0.9-0.38,1.1-0.83c0.2-0.45,0.15-0.97-0.14-1.37l-3.81-5.45l1.91-4.09l4.5-0.39l3.81,5.45  c0.28,0.4,0.76,0.63,1.24,0.59c0.49-0.03,0.92-0.32,1.15-0.75C75.35,88.75,75.01,83.6,72.23,79.63z M33,18.76  c-1.7-2.42-2.23-5.4-1.55-8.2l2.76,3.94c0.29,0.41,0.77,0.64,1.27,0.59l6.11-0.53c0.5-0.04,0.94-0.35,1.15-0.8l2.59-5.56  c0.21-0.45,0.17-0.99-0.12-1.4l-2.76-3.94c2.86,0.32,5.48,1.84,7.17,4.26c2.85,4.07,2.28,9.72-1.32,13.15  c-0.37,0.35-0.52,0.88-0.39,1.37l4.01,15.14c-1.78,1.76-4.23,3.93-6.5,5.53l-4.88-18.39c-0.14-0.52-0.57-0.92-1.1-1.02  C36.81,22.42,34.53,20.95,33,18.76z M42.93,43.85c-0.29,0.14-0.57,0.28-0.83,0.37c-0.06-0.63,0-1.66,0.18-2.84L42.93,43.85z   M45.01,78.41l-16.27-14.3c1.43-2.16,2.62-5.6,2.87-7.88c0.36-3.34,3.32-16.9,5.72-20.46c0.47-0.69,1.4-1.77,2.43-1.23  c0.65,0.33,1.16,1.26,0.88,2c-0.88,2.33-2.25,8.09-0.61,10c0.48,0.56,1.19,0.8,1.91,0.65c4.56-0.97,12.19-8.48,13.95-10.52  c0.5-0.59,0.44-1.47-0.15-1.98c-0.44-0.38-1.04-0.43-1.53-0.19l-0.91-3.43c1.72-0.12,4.61-0.06,5.33,0.12  c0.69,0.41,2.89,2.74,3.14,4.42c0.08,0.52-0.07,0.74-0.22,0.9c-1.1,1.11-2.78,2.74-4.39,4.31c-4.93,4.78-4.93,4.78-4.93,5.51  c0,0.38,0.15,0.74,0.42,1.01c0.27,0.27,0.65,0.43,1.02,0.41c0.63-0.01,0.97-0.37,1.35-0.79c0.58-0.62,2.12-2.26,3.53-2.29  c0.53,0,1.03,0.23,1.54,0.72c0.63,0.63,0.7,1.13,0.69,1.46c-0.01,1.1-0.98,2.33-1.88,3.28c-0.32,0.28-0.59,0.56-0.83,0.82  c-0.08,0.08-0.16,0.15-0.23,0.21c-0.69,0.65-1.07,1.01-1.08,1.69c0,0.38,0.15,0.77,0.42,1.04c0.28,0.28,0.68,0.42,1.07,0.41  c0.67-0.03,1.02-0.45,1.43-0.93c0.11-0.13,0.25-0.3,0.41-0.47c0.23-0.22,0.48-0.46,0.74-0.73c0.47-0.4,1.01-0.72,1.56-0.75  c0.57-0.04,1.19,0.29,1.83,0.93c0.55,0.54,0.6,0.99,0.59,1.29c-0.05,1.67-2.42,3.77-3.32,4.57c-0.63,0.55-1,0.89-1.02,1.55  c-0.01,0.39,0.14,0.78,0.42,1.05c0.45,0.44,1.21,0.75,2.28-0.26c2.84-2.67,3.96-2.2,4.55-1.61c0.34,0.34,0.39,0.62,0.39,0.84  c-0.01,1.66-2.92,4.48-4.48,6c-3.44,3.34-7.49,5.63-11.07,7.65C49.74,75.04,47.04,76.57,45.01,78.41z M71.49,89.43l-2.76-3.94  c-0.29-0.41-0.77-0.64-1.27-0.59l-6.11,0.53c-0.5,0.04-0.94,0.35-1.15,0.8l-2.59,5.56c-0.21,0.45-0.17,0.99,0.12,1.4l2.76,3.94  c-2.86-0.32-5.48-1.84-7.17-4.26c-2.86-4.09-2.28-9.76,1.35-13.18c0.37-0.35,0.53-0.88,0.39-1.38l-0.71-2.66  c2.19-1.24,4.54-2.59,6.85-4.23l1.25,4.67c0.14,0.52,0.56,0.91,1.09,1.01c2.61,0.5,4.88,1.97,6.4,4.14  C71.63,83.66,72.17,86.64,71.49,89.43z"/><g class="st0"><path path="#00077B" class="st1" d="M67.15,77.09c0.73-0.61,1.46-1.24,2.16-1.92c3.11-3.01,5.9-5.96,5.91-8.87c0.01-1.19-0.46-2.28-1.35-3.16   c-0.7-0.69-1.63-1.28-2.82-1.4c0.3-0.69,0.49-1.42,0.51-2.17c0.04-1.38-0.51-2.67-1.57-3.72c-1.04-1.03-2.14-1.65-3.29-1.86   c0.24-0.63,0.39-1.3,0.39-2c0.02-1.44-0.55-2.74-1.69-3.87c-0.74-0.73-1.53-1.22-2.39-1.49c1.51-1.47,2.99-2.91,4.03-3.96   c0.74-0.75,1.52-2.08,1-4.18c-0.75-3.04-4.07-6.41-5.45-6.85c-1.3-0.41-5.44-0.46-7.72-0.23l-1.95-7.35   c4.5-4.89,5.06-12.44,1.21-17.94c-3.08-4.41-8.32-6.7-13.66-5.99c-0.54,0.07-1,0.42-1.22,0.92c-0.22,0.5-0.16,1.07,0.15,1.52   l4.23,6.04l-2.12,4.54l-4.99,0.44l-4.23-6.04c-0.31-0.44-0.83-0.69-1.37-0.66c-0.54,0.04-1.03,0.35-1.28,0.83   c-2.49,4.78-2.12,10.48,0.96,14.88c1.97,2.82,4.84,4.8,8.15,5.65l1.81,6.82c-1.63-0.21-3.56,0.47-5.18,2.86   c-3.23,4.79-6.48,20.55-6.86,24.1c-0.29,2.67-1.96,6.8-3.32,8.17c-0.3,0.3-0.46,0.72-0.45,1.15c0.02,0.43,0.21,0.83,0.53,1.11   l20.23,17.78c0.3,0.26,0.66,0.39,1.03,0.39c0.42,0,0.84-0.17,1.15-0.51c1.54-1.7,3.78-3.14,6.39-4.66l2.43,9.09   c0.88,3.29,3.87,5.47,7.13,5.47c0.63,0,1.27-0.08,1.91-0.25c1.9-0.51,3.5-1.73,4.48-3.44s1.25-3.7,0.74-5.6L67.15,77.09z    M33.17,20.8c-1.88-2.69-2.47-5.99-1.72-9.09l3.06,4.37c0.32,0.45,0.85,0.71,1.41,0.66l6.77-0.59c0.55-0.05,1.04-0.39,1.27-0.89   l2.87-6.16c0.23-0.5,0.18-1.09-0.14-1.55l-3.06-4.37c3.17,0.35,6.07,2.04,7.95,4.73c3.16,4.51,2.53,10.78-1.46,14.58   c-0.41,0.39-0.58,0.98-0.43,1.52l4.45,16.79c-1.98,1.95-4.69,4.36-7.2,6.13l-5.42-20.39c-0.15-0.58-0.63-1.02-1.22-1.13   C37.41,24.86,34.87,23.23,33.17,20.8z M44.19,48.62c-0.32,0.16-0.63,0.31-0.92,0.42c-0.06-0.7-0.01-1.84,0.2-3.15L44.19,48.62z    M46.5,86.94L28.46,71.08c1.58-2.39,2.91-6.2,3.18-8.73c0.4-3.7,3.68-18.74,6.35-22.69c0.52-0.76,1.55-1.96,2.69-1.37   c0.72,0.37,1.29,1.4,0.98,2.22c-0.97,2.59-2.5,8.97-0.67,11.09c0.53,0.62,1.32,0.89,2.12,0.72c5.06-1.07,13.52-9.4,15.46-11.66   c0.56-0.65,0.49-1.63-0.17-2.19c-0.49-0.42-1.16-0.48-1.7-0.22l-1.01-3.8c1.9-0.13,5.11-0.06,5.91,0.13   c0.76,0.46,3.2,3.04,3.48,4.9c0.09,0.57-0.07,0.83-0.24,1c-1.22,1.24-3.08,3.04-4.87,4.78c-5.46,5.3-5.46,5.3-5.47,6.1   c0,0.42,0.17,0.82,0.46,1.12c0.3,0.3,0.72,0.49,1.13,0.45c0.7-0.01,1.07-0.41,1.5-0.87c0.64-0.69,2.35-2.51,3.92-2.54   c0.6-0.03,1.15,0.25,1.7,0.8c0.7,0.69,0.77,1.26,0.77,1.62c-0.02,1.22-1.08,2.59-2.08,3.64c-0.35,0.31-0.66,0.62-0.92,0.91   c-0.09,0.08-0.17,0.16-0.25,0.24c-0.77,0.72-1.19,1.12-1.2,1.87c-0.01,0.42,0.17,0.85,0.47,1.15c0.31,0.31,0.75,0.47,1.18,0.46   c0.75-0.03,1.13-0.49,1.58-1.03c0.12-0.15,0.28-0.33,0.45-0.53c0.25-0.24,0.53-0.51,0.82-0.8c0.52-0.44,1.12-0.8,1.73-0.83   c0.63-0.04,1.32,0.32,2.03,1.03c0.61,0.6,0.66,1.1,0.65,1.43c-0.05,1.86-2.69,4.19-3.68,5.06c-0.69,0.61-1.11,0.98-1.13,1.72   c-0.01,0.43,0.16,0.86,0.46,1.16c0.49,0.49,1.34,0.84,2.53-0.29c3.15-2.96,4.39-2.43,5.04-1.78c0.38,0.38,0.43,0.68,0.43,0.93   c-0.01,1.85-3.24,4.97-4.97,6.65c-3.82,3.7-8.31,6.24-12.27,8.49C51.74,83.2,48.75,84.89,46.5,86.94z M67.37,94.75   c-0.57,0.99-1.49,1.7-2.59,1.99c-1.1,0.3-2.25,0.14-3.24-0.43c-0.99-0.57-1.7-1.49-1.99-2.59l-2.65-9.88   c2.43-1.38,5.03-2.88,7.59-4.7l3.31,12.36C68.09,92.61,67.94,93.77,67.37,94.75z"/><path path="#00077B" class="st1" d="M63.67,89.9c-1.5,0-2.72,1.22-2.72,2.72c0,1.5,1.22,2.72,2.72,2.72c1.5,0,2.72-1.22,2.72-2.72   C66.39,91.12,65.17,89.9,63.67,89.9z M63.67,93.79c-0.64,0-1.17-0.52-1.17-1.17c0-0.64,0.52-1.17,1.17-1.17   c0.64,0,1.17,0.52,1.17,1.17C64.84,93.26,64.31,93.79,63.67,93.79z"/></g><g class="st0"><path path="#00077B" class="st1" d="M71.84,83.47c-1.09-2.99-3.31-5.45-6.16-6.86V23.15c5.28-2.9,7.77-9.35,5.68-15.09   c-1.59-4.36-5.44-7.45-10.05-8.05c-0.46-0.06-0.93,0.13-1.22,0.49c-0.29,0.37-0.37,0.86-0.21,1.3l2.18,5.98l-2.78,3.31l-4.25-0.75   l-2.18-5.98c-0.16-0.44-0.54-0.76-1-0.86c-0.46-0.09-0.93,0.06-1.25,0.41c-3.14,3.42-4.11,8.26-2.52,12.62   c1.09,3.01,3.33,5.47,6.2,6.88v53.41c-5.32,2.89-7.82,9.35-5.73,15.11c1.59,4.36,5.44,7.45,10.05,8.05   c0.06,0.01,0.12,0.01,0.17,0.01c0.4,0,0.79-0.18,1.05-0.5c0.29-0.37,0.37-0.86,0.21-1.3l-2.18-5.98l2.78-3.31l4.25,0.75l2.18,5.98   c0.16,0.44,0.54,0.77,1,0.86c0.46,0.09,0.93-0.06,1.25-0.41C72.46,92.66,73.42,87.83,71.84,83.47z M68.72,92.35l-1.57-4.33   c-0.16-0.45-0.56-0.78-1.03-0.86l-5.78-1.02c-0.47-0.08-0.95,0.09-1.26,0.46l-3.77,4.5c-0.31,0.37-0.4,0.87-0.23,1.32l1.58,4.33   c-2.56-1-4.61-3.06-5.57-5.72c-1.72-4.73,0.52-10.06,5.1-12.15c0.48-0.22,0.79-0.7,0.79-1.22V22.54c0-0.55-0.33-1.04-0.84-1.24   c-2.57-1.03-4.58-3.1-5.52-5.68c-0.97-2.66-0.72-5.55,0.6-7.96l1.58,4.33c0.16,0.45,0.56,0.78,1.03,0.86l5.78,1.02   c0.47,0.08,0.95-0.09,1.26-0.46l3.77-4.5c0.31-0.37,0.4-0.87,0.23-1.32l-1.57-4.33c2.56,1,4.61,3.06,5.57,5.72   c1.71,4.71-0.51,10.04-5.06,12.13C63.3,21.33,63,21.8,63,22.33v55.15c0,0.55,0.33,1.04,0.84,1.24c2.55,1.03,4.55,3.1,5.48,5.66   c0,0,0,0,0,0C70.28,87.04,70.04,89.93,68.72,92.35z"/><path path="#00077B" class="st1" d="M32.78,71.03v17.05c0,0.56,0.45,1.01,1.01,1.01c0.56,0,1.01-0.45,1.01-1.01V71.03c0-0.56-0.45-1.01-1.01-1.01   C33.23,70.02,32.78,70.47,32.78,71.03z"/><path path="#00077B" class="st1" d="M38.81,44.66h-3.69V8.97c0.35-0.01,0.69-0.16,0.94-0.42c0.25-0.27,0.38-0.63,0.36-1l-0.39-6.29   C35.99,0.55,35.4,0,34.69,0h-1.82c-0.71,0-1.29,0.55-1.34,1.26l-0.39,6.29c-0.02,0.37,0.11,0.73,0.36,1   c0.24,0.26,0.58,0.41,0.94,0.42v35.69h-3.69c-0.74,0-1.34,0.6-1.34,1.34v6.05c0,0.68,0.14,1.34,0.4,1.96l0.55,1.28   c0.64,1.51,0.64,6.98,0,8.48l-0.55,1.28c-0.27,0.62-0.4,1.28-0.4,1.96v26.62c0,3.51,2.86,6.37,6.37,6.37s6.37-2.86,6.37-6.37V67.01   c0-0.68-0.14-1.34-0.4-1.96l-0.55-1.27c-0.64-1.51-0.64-6.98,0-8.48l0.54-1.27c0.27-0.62,0.4-1.28,0.4-1.96V46   C40.15,45.26,39.55,44.66,38.81,44.66z M37.47,52.05c0,0.31-0.06,0.62-0.19,0.91l-0.55,1.28c-0.93,2.18-0.93,8.41,0,10.59   l0.55,1.28c0.12,0.29,0.19,0.59,0.19,0.9v26.62c0,2.03-1.65,3.69-3.69,3.69c-2.03,0-3.69-1.65-3.69-3.69V67.01   c0-0.31,0.06-0.62,0.19-0.91l0.55-1.28c0.93-2.18,0.93-8.42,0-10.59l-0.55-1.27c-0.12-0.29-0.19-0.59-0.19-0.91v-4.71h7.38V52.05z"/><path path="#00077B" class="st1" d="M31.41,93.63c0,1.29,1.05,2.35,2.35,2.35s2.35-1.05,2.35-2.35c0-1.29-1.05-2.35-2.35-2.35   S31.41,92.34,31.41,93.63z M34.76,93.63c0,0.55-0.45,1.01-1.01,1.01c-0.55,0-1.01-0.45-1.01-1.01c0-0.55,0.45-1.01,1.01-1.01   C34.31,92.62,34.76,93.07,34.76,93.63z"/></g><path path="#00077B" class="st0" d="M82.97,38.97L65.88,4.81c-0.21-0.42-0.58-0.75-1.03-0.9L53.35,0.09c-0.45-0.15-0.94-0.11-1.36,0.1L17.83,17.28  c-0.88,0.44-1.24,1.51-0.8,2.4l10.02,20.04c-0.65,0.56-1.28,1.23-1.88,2.03c-4.25,5.61-4.76,26.73-4.42,30.25  c0.3,3.08-0.63,8.11-1.84,9.97c-0.27,0.41-0.35,0.92-0.24,1.4c0.12,0.48,0.42,0.89,0.85,1.13l26.89,15.28  C46.7,99.93,47,100,47.3,100c0.61,0,1.21-0.31,1.54-0.88c1.72-2.91,4.81-5.62,8.39-8.76c4.1-3.59,8.74-7.66,12.43-13.09  c2.8-4.11,5.25-8.08,4.59-11.36c-0.27-1.34-1.05-2.46-2.25-3.24c-0.95-0.62-2.12-1.06-3.49-0.92c0.17-0.85,0.22-1.71,0.06-2.56  c-0.28-1.56-1.19-2.88-2.64-3.82c-1.41-0.92-2.79-1.35-4.13-1.32c0.12-0.77,0.13-1.56-0.02-2.34c-0.01-0.05-0.02-0.09-0.03-0.14  l20.41-10.21C83.05,40.93,83.41,39.85,82.97,38.97z M41.69,9.34l3.6,7.2c0.16,0.32,0.44,0.56,0.77,0.67  c0.14,0.05,0.28,0.07,0.42,0.07c0.21,0,0.41-0.05,0.6-0.14L51.36,15c0.32-0.16,0.56-0.44,0.67-0.77c0.11-0.34,0.09-0.71-0.07-1.02  L48.36,6l2.3-1.15l5.35,10.7L35.37,25.88l-5.35-10.7L41.69,9.34z M45.96,7.2l3,6l-1.88,0.94l-3-6L45.96,7.2z M63.99,58.37  c0.82,0.53,1,1.08,1.07,1.45c0.37,2.1-2.05,5.33-2.96,6.55c-0.64,0.85-1.02,1.37-0.87,2.2c0.09,0.49,0.38,0.93,0.8,1.2  c0.67,0.43,1.7,0.63,2.78-0.91c2.85-4.06,4.37-3.76,5.26-3.19c0.51,0.33,0.64,0.67,0.7,0.95c0.42,2.08-2.49,6.35-4.05,8.64  c-3.43,5.05-7.9,8.96-11.83,12.41c-3.12,2.73-6.09,5.34-8.15,8.16L22.76,82.21c1.23-3.06,1.83-7.66,1.55-10.57  c-0.4-4.1,0.52-23.53,3.71-27.75c0.24-0.31,0.47-0.59,0.71-0.84l2.56,5.13c-1.5,3.74-1.45,7.64,0.13,9.5  c0.59,0.69,1.37,1.06,2.19,1.06c0.2,0,0.4-0.02,0.61-0.07c3.85-0.89,11.71-13.67,13.02-16.21c0.45-0.88,0.11-1.95-0.77-2.41  c-0.88-0.45-1.95-0.11-2.41,0.77c-0.47,0.92-1.06,1.94-1.71,3c-1.29-0.9-2.11-2.54-1.77-3.29c0.83-1.82,6.99-4.41,8.6-4.16  c1.25,0.23,4.95,3.45,4.7,5.04c-0.34,2.16-3.68,7.3-5.11,9.5c-1.24,1.91-2.06,3.17-0.51,4.18c0.4,0.26,0.9,0.35,1.38,0.25  c0.78-0.18,1.11-0.71,1.49-1.33c0.57-0.92,2.07-3.37,3.82-3.77c0.66-0.15,1.35,0.02,2.1,0.51c0.95,0.62,1.16,1.23,1.24,1.64  c0.27,1.38-0.62,3.16-1.5,4.58c-0.32,0.43-0.59,0.85-0.82,1.24c-0.08,0.12-0.16,0.22-0.23,0.32c-0.7,0.99-1.08,1.53-0.91,2.39  c0.09,0.47,0.39,0.92,0.79,1.18c0.42,0.27,0.96,0.36,1.44,0.24c0.83-0.21,1.16-0.82,1.54-1.52c0.11-0.19,0.23-0.43,0.39-0.69  c0.23-0.33,0.48-0.7,0.73-1.1c0.48-0.62,1.08-1.16,1.76-1.34C62.17,57.51,63.02,57.74,63.99,58.37z M33.94,54.87  c-0.1-0.38-0.18-0.97-0.15-1.72l0.64,1.28C34.25,54.61,34.09,54.75,33.94,54.87z M58.99,47.76c-1.12-0.73-2.27-1.11-3.42-1.14  c0.13-0.25,0.25-0.48,0.37-0.73l13.57-6.79c0.66-0.33,0.93-1.14,0.6-1.8c-0.33-0.66-1.14-0.93-1.8-0.6l-10.95,5.48  c0.01-0.06,0.04-0.14,0.05-0.2c0.17-1.08-0.06-2.23-0.69-3.41l10.02-5.01c0.66-0.33,0.93-1.14,0.6-1.8c-0.33-0.66-1.14-0.93-1.8-0.6  l-10.42,5.21c-1.2-1.31-2.73-2.46-4.05-3.08l15.37-7.69l7.85,15.7l-14.36,7.18C59.65,48.23,59.34,47.99,58.99,47.76z M76.69,40.11  l-8.45-16.9c-0.33-0.66-1.14-0.93-1.8-0.6L34.77,38.46c-0.32,0.16-0.56,0.44-0.67,0.77c-0.11,0.34-0.09,0.71,0.07,1.02l4.51,9.02  c-0.59,0.8-1.17,1.56-1.72,2.26L21.03,19.67l6.59-3.3l5.95,11.9c0.24,0.47,0.71,0.74,1.2,0.74c0.2,0,0.41-0.05,0.6-0.14l23.04-11.53  c0.32-0.16,0.56-0.44,0.67-0.77c0.11-0.34,0.09-0.71-0.07-1.02L53.13,3.78l9.89,3.29l15.96,31.9L76.69,40.11z"/><path path="#00077B" class="st0" d="M66.18,84.74c-0.39-0.38-0.9-0.71-1.56-0.78c0.16-0.38,0.27-0.79,0.28-1.21c0.02-0.77-0.28-1.48-0.87-2.07  c-0.58-0.57-1.19-0.92-1.83-1.03c0.13-0.35,0.21-0.72,0.22-1.11c0.01-0.8-0.31-1.52-0.94-2.15c-0.36-0.36-0.75-0.62-1.16-0.77  c0.48-0.45,0.93-0.88,1.32-1.27c0.72-0.73,1-1.81,0.77-3.04c-0.29-1.57-1.36-3.14-2.47-3.64c-1.29-0.58-3.14-0.34-4.28,0.01  c-0.09-0.04-0.19-0.06-0.3-0.06l-0.92,0.05l-0.08-0.29l0.75-0.2c0.35-0.09,0.55-0.45,0.46-0.79l-0.68-2.54  c-0.04-0.17-0.15-0.31-0.3-0.39c-0.15-0.09-0.33-0.11-0.49-0.06l-0.4,0.11L36.07,0.47c-0.1-0.34-0.45-0.54-0.79-0.45l-1.72,0.46  C33.21,0.58,33,0.93,33.09,1.27l16.27,63.39l-0.4,0.11c-0.17,0.04-0.31,0.15-0.39,0.3c-0.09,0.15-0.11,0.33-0.06,0.49l0.68,2.54  c0.04,0.17,0.15,0.31,0.3,0.39c0.15,0.09,0.32,0.11,0.49,0.06l0.74-0.2l0.08,0.29l-0.82,0.42c-0.12,0.06-0.21,0.16-0.28,0.28  c-1.01-0.32-2.38-0.07-3.67,1.51c-1.99,2.43-4.8,11.21-5.02,13.26c-0.16,1.48-1.09,3.77-1.84,4.54c-0.17,0.17-0.26,0.4-0.25,0.64  c0.01,0.24,0.11,0.46,0.29,0.62l11.24,9.87c0.16,0.14,0.37,0.21,0.57,0.21c0.24,0,0.47-0.1,0.64-0.28c1.1-1.21,2.83-2.19,4.83-3.32  c2.29-1.3,4.89-2.77,7.16-4.97c1.73-1.67,3.27-3.31,3.28-4.92C66.93,85.84,66.67,85.23,66.18,84.74z M51.84,64  c-0.01-0.01-0.02-0.02-0.03-0.02c-1.06-0.63-1.44-2.03-0.83-3.12c0.17-0.3,0.28-0.63,0.34-0.95l1.1,3.94L51.84,64z M50.22,60.44  c-0.18,0.32-0.29,0.66-0.35,1l-1.21-4.73c0.21,0.23,0.45,0.44,0.74,0.61C50.46,57.96,50.83,59.35,50.22,60.44z M36.61,7.22  c0.06,0.47-0.02,0.97-0.27,1.42c-0.01,0.01-0.01,0.02-0.01,0.03l-0.81-3.14c0.4,0.24,0.7,0.59,0.89,0.99L36.61,7.22z M47.28,45.42  l1.18,4.24c-0.18-0.18-0.39-0.35-0.62-0.49c-1.06-0.63-1.44-2.03-0.83-3.12C47.13,45.85,47.21,45.64,47.28,45.42z M45.25,38.16  l1.11,3.98c-0.15-0.14-0.32-0.26-0.5-0.37c-1.06-0.63-1.44-2.03-0.83-3.12C45.12,38.49,45.19,38.33,45.25,38.16z M43.22,30.89  l1.05,3.77c-0.12-0.1-0.25-0.2-0.39-0.28c-1.06-0.63-1.44-2.03-0.83-3.12C43.11,31.13,43.17,31.01,43.22,30.89z M41.18,23.6  l0.99,3.56c-0.09-0.07-0.19-0.13-0.28-0.19c-1.06-0.63-1.44-2.03-0.83-3.12C41.11,23.77,41.15,23.69,41.18,23.6z M39.15,16.31  l0.94,3.37c-0.06-0.04-0.12-0.08-0.18-0.12c-1.06-0.63-1.44-2.03-0.83-3.12C39.11,16.4,39.13,16.36,39.15,16.31z M37.11,9.02  l0.89,3.2c-0.03-0.02-0.05-0.04-0.08-0.05c-1.06-0.63-1.44-2.03-0.83-3.12C37.1,9.03,37.11,9.03,37.11,9.02z M37.5,12.91  c1.06,0.63,1.44,2.03,0.83,3.12c-0.03,0.05-0.05,0.09-0.07,0.14l-0.85-3.32C37.43,12.87,37.46,12.89,37.5,12.91z M39.48,20.31  c1.06,0.63,1.44,2.03,0.83,3.12c-0.05,0.08-0.09,0.17-0.12,0.25l-0.9-3.5C39.35,20.23,39.41,20.27,39.48,20.31z M41.46,27.71  c1.06,0.63,1.44,2.03,0.83,3.12c-0.07,0.12-0.12,0.25-0.17,0.38l-0.95-3.7C41.26,27.58,41.36,27.65,41.46,27.71z M43.44,35.12  c1.06,0.63,1.44,2.03,0.83,3.12c-0.09,0.16-0.17,0.34-0.22,0.51l-1.01-3.92C43.17,34.93,43.3,35.03,43.44,35.12z M45.43,42.52  c1.06,0.63,1.44,2.03,0.83,3.12c-0.12,0.21-0.21,0.43-0.27,0.66l-1.07-4.16C45.07,42.28,45.24,42.41,45.43,42.52z M47.41,49.92  c1.06,0.63,1.44,2.03,0.83,3.12c-0.15,0.26-0.25,0.54-0.31,0.82l-1.14-4.43C46.97,49.61,47.18,49.78,47.41,49.92z M49.83,56.57  c-1.06-0.63-1.44-2.03-0.83-3.12c0.14-0.25,0.24-0.51,0.3-0.78l1.26,4.51C50.35,56.95,50.11,56.74,49.83,56.57z M35.92,4.74  c-0.36-0.22-0.64-0.54-0.83-0.89l-0.26-1.02c-0.01-0.37,0.07-0.75,0.25-1.1L35.92,4.74z M50.52,63.97c0.09,0.11,0.18,0.21,0.28,0.31  l-0.19,0.05L50.52,63.97z M50.27,67.14l-0.35-1.29l0.47-0.13l2.99-0.8c0,0,0,0,0,0l0.39-0.1l0.35,1.29l-0.75,0.2  c-0.35,0.09-0.55,0.45-0.46,0.79l0.38,1.42c0.08,0.29,0.36,0.49,0.66,0.48l0.34-0.02c-0.12,0.28-0.02,0.62,0.24,0.79l0.41,0.27  l-0.22,0.44c-0.15,0.29-0.05,0.65,0.22,0.83l0.41,0.27l-0.22,0.44c-0.06,0.11-0.07,0.23-0.06,0.35c-0.63,0.74-1.36,1.48-2.13,2.15  c-0.05-0.08-0.11-0.16-0.19-0.21l-0.41-0.27l0.22-0.44c0.15-0.29,0.05-0.65-0.22-0.83l-0.41-0.27l0.22-0.44  c0.15-0.29,0.05-0.65-0.22-0.83l-0.41-0.27l0.22-0.44c0.14-0.28,0.06-0.62-0.18-0.8l0.3-0.15c0.27-0.14,0.41-0.45,0.33-0.74  l-0.38-1.42c-0.04-0.17-0.15-0.31-0.3-0.39c-0.15-0.09-0.33-0.11-0.49-0.06L50.27,67.14z M50.9,74.46c0.04,0.13,0.13,0.25,0.25,0.34  l0.41,0.27l-0.22,0.44c-0.05,0.1-0.06,0.2-0.06,0.31c-0.54,0.37-1.07,0.68-1.56,0.9C49.94,76.2,50.31,75.47,50.9,74.46z   M62.44,90.18c-2.12,2.05-4.61,3.47-6.81,4.71c-1.74,0.99-3.41,1.93-4.65,3.06l-10.02-8.8c0.88-1.33,1.62-3.44,1.77-4.85  c0.2-1.82,2.9-10.22,4.64-12.36c0.73-0.89,1.52-1.22,2.05-0.85c0.51,0.36,0.72,1.26,0.18,2.16c-2.23,3.73-2.05,4.55-1.69,5.06  c0.26,0.36,0.7,0.52,1.18,0.41c2.73-0.58,6.56-3.94,8.42-6.73c0.27-0.4,0.16-0.93-0.24-1.2c-0.25-0.17-0.56-0.19-0.82-0.07  l-0.31-0.2l0.22-0.44c0.14-0.27,0.06-0.59-0.17-0.78c0.97-0.29,2.33-0.38,3.02-0.07c0.54,0.24,1.28,1.28,1.48,2.38  c0.09,0.47,0.11,1.11-0.29,1.51c-0.87,0.88-2.13,2.02-3.14,2.94c-1.84,1.67-1.84,1.67-1.85,2.1c0,0.24,0.09,0.47,0.26,0.63  c0.17,0.16,0.4,0.26,0.63,0.25c0.39-0.01,0.59-0.23,0.83-0.48c0.36-0.38,1.31-1.39,2.18-1.41c0.32,0,0.64,0.14,0.94,0.45  c0.39,0.39,0.43,0.7,0.43,0.9c-0.01,0.68-0.6,1.44-1.16,2.02c-0.19,0.17-0.36,0.34-0.51,0.51c-0.05,0.05-0.1,0.09-0.14,0.13  c-0.43,0.4-0.66,0.62-0.67,1.04c0,0.23,0.09,0.47,0.26,0.64c0.17,0.17,0.42,0.26,0.66,0.25c0.41-0.02,0.63-0.27,0.88-0.57  c0.07-0.08,0.15-0.18,0.25-0.29c0.14-0.13,0.29-0.28,0.45-0.45c0.29-0.24,0.62-0.45,0.96-0.46c0.35-0.01,0.73,0.18,1.13,0.57  c0.34,0.33,0.37,0.61,0.36,0.79c-0.03,1.03-1.49,2.32-2.04,2.81c-0.39,0.34-0.62,0.55-0.63,0.95c-0.01,0.24,0.09,0.47,0.26,0.64  c0.27,0.27,0.74,0.47,1.41-0.16c1.75-1.64,2.43-1.35,2.8-0.99c0.21,0.21,0.24,0.38,0.24,0.52C65.2,87.51,63.41,89.25,62.44,90.18z"/><g class="st0"><path path="#00077B" class="st1" d="M90.89,69.47c-3.68-1.72-7.89-1.93-11.74-0.63L56.37,46.05l32.37-32.37c0.32,0.3,0.73,0.47,1.17,0.47   c0.02,0,0.04,0,0.05,0c0.47-0.01,0.92-0.22,1.23-0.58l5.32-6.02c0.6-0.68,0.57-1.7-0.07-2.34L94.8,3.56   c-0.64-0.64-1.67-0.67-2.34-0.07l-6.02,5.32c-0.35,0.31-0.56,0.76-0.58,1.23c-0.01,0.45,0.16,0.89,0.47,1.22L53.95,43.63l-23-23   c2.15-7.38-1.43-15.44-8.48-18.73C17.1-0.61,10.85,0.08,6.15,3.7C5.67,4.06,5.42,4.65,5.49,5.24C5.56,5.83,5.93,6.35,6.47,6.6   l7.35,3.43l0.48,5.49l-4.51,3.16l-7.35-3.43C1.89,15,1.26,15.05,0.76,15.38c-0.5,0.33-0.79,0.9-0.76,1.5   c0.25,5.92,3.74,11.16,9.11,13.66c3.7,1.73,7.94,1.93,11.8,0.61l18.73,18.73l-0.48,1.19C38.38,53,35.16,56.22,33.22,57l-1.64,0.66   c-0.8,0.32-1.52,0.8-2.13,1.41L5.44,83.07c-3.17,3.17-3.17,8.32,0,11.49c1.58,1.58,3.66,2.38,5.74,2.38c2.08,0,4.16-0.79,5.75-2.38   l24.01-24.01c0.61-0.61,1.08-1.33,1.41-2.13L43,66.78c0.78-1.94,4-5.16,5.93-5.94l1.19-0.48l18.94,18.95   c-2.19,7.4,1.38,15.49,8.46,18.79c2.14,1,4.42,1.49,6.68,1.49c3.42,0,6.81-1.12,9.63-3.29c0.47-0.36,0.72-0.95,0.66-1.54   c-0.07-0.59-0.44-1.11-0.98-1.36l-7.35-3.43l-0.48-5.49l4.51-3.16l7.35,3.43c0.54,0.25,1.18,0.2,1.67-0.13   c0.5-0.33,0.79-0.9,0.76-1.49C99.75,77.2,96.26,71.97,90.89,69.47z M20.66,27.58c-3.24,1.39-6.93,1.33-10.1-0.14   c-3.27-1.53-5.66-4.35-6.64-7.72l5.32,2.48c0.55,0.26,1.2,0.2,1.7-0.15l6.13-4.29c0.5-0.35,0.78-0.94,0.72-1.55l-0.65-7.46   c-0.05-0.61-0.43-1.14-0.98-1.4l-5.32-2.48c3.22-1.41,6.91-1.4,10.18,0.13c5.79,2.7,8.59,9.51,6.37,15.51   c-0.23,0.63-0.08,1.33,0.39,1.8l23.75,23.75l-1.64,1.64l-3.33-3.33c-0.67-0.67-1.75-0.67-2.42,0l-2.6,2.6L22.54,27.94   C22.04,27.45,21.3,27.31,20.66,27.58z M39.83,65.51l-0.66,1.64c-0.15,0.37-0.37,0.7-0.65,0.99L14.51,92.14   c-1.83,1.83-4.82,1.83-6.65,0c-1.83-1.83-1.83-4.82,0-6.65l24.01-24.01c0.28-0.28,0.61-0.5,0.98-0.65l1.64-0.66   c2.77-1.11,6.73-5.07,7.84-7.84l0.66-1.64c0.15-0.37,0.37-0.7,0.65-0.98l1.72-1.72l6.65,6.65l-1.72,1.72   c-0.28,0.28-0.61,0.5-0.98,0.65l-1.64,0.66C44.89,58.78,40.94,62.74,39.83,65.51z M90.76,77.8c-0.55-0.26-1.2-0.2-1.7,0.15   l-6.13,4.29c-0.5,0.35-0.78,0.94-0.72,1.55l0.65,7.46c0.05,0.61,0.43,1.14,0.98,1.4l5.33,2.48c-3.22,1.41-6.91,1.4-10.18-0.13   c-5.82-2.71-8.61-9.55-6.35-15.55c0.24-0.63,0.08-1.34-0.39-1.81L53.04,58.45l2.6-2.6c0.67-0.67,0.67-1.75,0-2.42l-3.33-3.33   l1.64-1.64l23.57,23.57c0.49,0.49,1.23,0.64,1.88,0.37c3.23-1.37,6.89-1.31,10.05,0.17c3.27,1.53,5.65,4.35,6.64,7.72L90.76,77.8z"/><path path="#00077B" class="st1" d="M30.66,67.53L15.29,82.9c-0.5,0.5-0.5,1.31,0,1.81c0.25,0.25,0.58,0.38,0.91,0.38s0.66-0.13,0.91-0.38   l15.37-15.37c0.5-0.5,0.5-1.31,0-1.81C31.97,67.03,31.16,67.03,30.66,67.53z"/><path path="#00077B" class="st1" d="M9.04,86.67c-0.57,0.57-0.88,1.32-0.88,2.12c0,0.8,0.31,1.55,0.88,2.12c0.56,0.57,1.32,0.88,2.12,0.88   c0.8,0,1.55-0.31,2.12-0.88c0.57-0.56,0.88-1.32,0.88-2.12c0-0.8-0.31-1.55-0.88-2.12C12.15,85.54,10.17,85.54,9.04,86.67z    M12.07,89.7c-0.48,0.48-1.33,0.48-1.81,0c-0.24-0.24-0.38-0.56-0.38-0.91s0.13-0.66,0.38-0.91c0.24-0.24,0.56-0.38,0.91-0.38   c0.34,0,0.66,0.13,0.91,0.38c0.24,0.24,0.38,0.56,0.38,0.91S12.31,89.46,12.07,89.7z"/></g><g class="st0"><path path="#00077B" class="st1" d="M83.49,28.26L71.74,16.51c-0.38-0.38-0.88-0.59-1.41-0.59h-52.4c-1.1,0-2,0.9-2,2v64.15c0,1.1,0.9,2,2,2h64.15   c1.1,0,2-0.9,2-2v-52.4C84.08,29.14,83.87,28.64,83.49,28.26z M33.82,19.92h18.58v11.5c0,0.83,0.67,1.5,1.5,1.5h6.56   c0.83,0,1.5-0.67,1.5-1.5v-11.5h4.21v17.2H33.82V19.92z M55.41,19.92h3.56v10h-3.56V19.92z M72.79,80.08H27.21V55.2h45.58V80.08z    M80.08,80.08h-4.28V53.7c0-0.83-0.67-1.5-1.5-1.5H25.71c-0.83,0-1.5,0.67-1.5,1.5v26.37h-4.28V19.92h10.9v18.7   c0,0.83,0.67,1.5,1.5,1.5h35.35c0.83,0,1.5-0.67,1.5-1.5v-18.7h0.32L80.08,30.5V80.08z"/><path path="#00077B" class="st1" d="M32.06,65.14h35.88c0.83,0,1.5-0.67,1.5-1.5s-0.67-1.5-1.5-1.5H32.06c-0.83,0-1.5,0.67-1.5,1.5   S31.23,65.14,32.06,65.14z"/><path path="#00077B" class="st1" d="M32.06,73.64h35.88c0.83,0,1.5-0.67,1.5-1.5s-0.67-1.5-1.5-1.5H32.06c-0.83,0-1.5,0.67-1.5,1.5   S31.23,73.64,32.06,73.64z"/></g><path path="#00077B" class="st0" d="M94.69,57.61c-0.32-0.72-1.04-1.19-1.83-1.19h-9.91c-1.04-20.54-18.09-36.93-38.88-36.93  c-21.47,0-38.93,17.47-38.93,38.93c0,1.1,0.9,2,2,2s2-0.9,2-2c0-15.85,12.9-28.75,28.75-28.75c15.18,0,27.64,11.83,28.67,26.75  h-9.74c-0.79,0-1.5,0.46-1.83,1.19c-0.32,0.72-0.19,1.56,0.34,2.15l18.02,20.08c0.38,0.42,0.92,0.66,1.49,0.66s1.11-0.24,1.49-0.66  l18.02-20.08C94.88,59.18,95.01,58.33,94.69,57.61z M74.84,75.51L61.3,60.43h7.38c1.1,0,2-0.9,2-2c0-0.15-0.02-0.3-0.05-0.45  c-0.24-17.85-14.83-32.3-32.74-32.3c-3.07,0-6.04,0.43-8.86,1.23c4.56-2.19,9.66-3.41,15.05-3.41C63.33,23.49,79,39.16,79,58.43  c0,1.1,0.9,2,2,2h7.38L74.84,75.51z"/><g><path path="#00077B" d="M96.8,80.88c-1.73-3.16-2.52-7.47-3.44-12.46c-1.05-5.71-2.25-12.18-5.2-18.52c-2.24-4.8-4.53-9.21-7.9-10.39   c-1.37-0.48-2.82-0.38-4.2,0.3c-1.08,0.53-2.13,1.37-2.75,2.7c-0.68-0.62-1.45-1.13-2.31-1.46c-1.58-0.6-3.29-0.48-4.94,0.33   c-1.61,0.79-2.77,1.82-3.47,3.07c-0.64-0.53-1.35-0.97-2.15-1.26c-1.66-0.6-3.39-0.46-5.16,0.41c-1.52,0.75-2.61,1.8-3.24,3.12   c-2.95-5.01-6.4-11.05-7.66-13.6c-2.26-4.6-7.02-5.35-10.34-3.71c-3.27,1.61-5.42,5.61-3.19,10.15c2.14,4.36,5.16,9.12,8.08,13.73   c3.37,5.32,7.1,11.21,8.23,14.82c-0.9-0.87-2.21-2.26-4.08-4.48c-3.02-3.58-7.29-3.61-9.78-1.81c-2.19,1.59-3.7,5.15-0.73,9.97   c3.64,5.9,19.91,18.09,24.03,20.03c2.98,1.4,7.08,4.99,8.13,7.12c0.23,0.47,0.65,0.82,1.15,0.98c0.18,0.06,0.37,0.08,0.56,0.08   c0.33,0,0.65-0.08,0.94-0.25l28.68-16.3C96.97,82.93,97.29,81.79,96.8,80.88z M67.07,95.55c-2.13-2.79-6.02-5.85-8.84-7.18   c-3.66-1.72-19.22-13.41-22.41-18.58c-1.34-2.17-1.45-4.04-0.28-4.89c0.4-0.29,0.92-0.45,1.49-0.45c1.02,0,2.19,0.5,3.14,1.62   c5.55,6.58,7.51,7.59,9.18,7.18c0.93-0.24,1.61-0.99,1.83-2.01c0.86-4.1-2.88-10.27-9.04-20c-2.87-4.53-5.83-9.21-7.89-13.38   c-1.27-2.58-0.01-4.33,1.45-5.05c1.72-0.84,4-0.56,5.25,1.98c1.54,3.13,5.85,10.54,7.13,12.73c5.65,9.66,5.78,9.71,6.59,9.98   c0.48,0.16,1,0.13,1.45-0.09c0.46-0.23,0.82-0.64,0.98-1.13c0.26-0.81-0.05-1.4-0.41-2.09c-0.54-1.02-1.96-3.73-1.37-5.55   c0.22-0.68,0.75-1.22,1.61-1.65c1.08-0.53,1.77-0.39,2.19-0.24c1.41,0.51,2.56,2.29,3.37,3.86c0.22,0.53,0.46,1.01,0.69,1.43   c0.06,0.14,0.12,0.26,0.17,0.38c0.53,1.18,0.82,1.82,1.69,2.14c0.49,0.17,1.05,0.14,1.51-0.08c0.48-0.23,0.85-0.68,1-1.19   c0.26-0.88-0.12-1.51-0.55-2.24c-0.12-0.2-0.27-0.45-0.42-0.73c-0.18-0.39-0.38-0.82-0.61-1.27c-0.3-0.78-0.48-1.62-0.27-2.33   c0.22-0.74,0.89-1.39,2.01-1.94c0.94-0.46,1.54-0.33,1.92-0.19c2.13,0.8,3.77,4.78,4.39,6.28c0.43,1.05,0.69,1.68,1.54,2   c0.49,0.19,1.05,0.16,1.53-0.07c0.76-0.38,1.5-1.21,0.68-3.04c-2.17-4.83-1.06-6.05-0.05-6.55c0.59-0.29,0.96-0.22,1.25-0.12   c2.13,0.75,4.46,5.73,5.71,8.41c2.75,5.9,3.9,12.11,4.91,17.6c0.8,4.35,1.56,8.49,3.03,11.91L67.07,95.55z"/><path path="#00077B" d="M21.79,5.07c-0.53-0.91-1.69-1.22-2.6-0.7c-0.91,0.53-1.22,1.69-0.7,2.6l7.61,13.18c0.35,0.61,0.99,0.95,1.65,0.95   c0.32,0,0.65-0.08,0.95-0.26c0.91-0.53,1.22-1.69,0.7-2.6L21.79,5.07z"/><path path="#00077B" d="M4.22,26.01l14.31,5.21c0.21,0.08,0.43,0.12,0.65,0.12c0.78,0,1.51-0.48,1.79-1.25c0.36-0.99-0.15-2.08-1.14-2.44   L5.53,22.43c-0.98-0.36-2.08,0.15-2.44,1.14C2.73,24.56,3.24,25.65,4.22,26.01z"/><path path="#00077B" d="M20.97,42.11c-0.36-0.99-1.45-1.5-2.44-1.14L4.22,46.18c-0.99,0.36-1.5,1.45-1.14,2.44c0.28,0.77,1.01,1.25,1.79,1.25   c0.22,0,0.44-0.04,0.65-0.12l14.31-5.21C20.82,44.19,21.33,43.1,20.97,42.11z"/><path path="#00077B" d="M28.7,51.33c-0.91-0.53-2.07-0.21-2.6,0.7l-7.61,13.18c-0.53,0.91-0.21,2.07,0.7,2.6c0.3,0.17,0.63,0.25,0.95,0.25   c0.66,0,1.3-0.34,1.65-0.95l7.61-13.18C29.92,53.01,29.61,51.85,28.7,51.33z"/><path path="#00077B" d="M55.09,36.09c0,1.05,0.85,1.9,1.9,1.9h15.22c1.05,0,1.9-0.85,1.9-1.9c0-1.05-0.85-1.9-1.9-1.9H56.99   C55.94,34.19,55.09,35.04,55.09,36.09z"/><path path="#00077B" d="M52.43,25.47c0.43,0,0.87-0.15,1.22-0.45l11.66-9.79c0.81-0.68,0.91-1.88,0.24-2.68c-0.68-0.8-1.88-0.91-2.68-0.23   L51.21,22.1c-0.81,0.68-0.91,1.88-0.24,2.68C51.35,25.23,51.89,25.47,52.43,25.47z"/><path path="#00077B" d="M40.55,18.77c0.11,0.02,0.22,0.03,0.33,0.03c0.91,0,1.71-0.65,1.87-1.57L45.4,2.23c0.18-1.04-0.51-2.02-1.54-2.2   c-1.04-0.18-2.02,0.51-2.2,1.54l-2.64,14.99C38.83,17.6,39.52,18.59,40.55,18.77z"/></g><g class="st0"><path path="#00077B" class="st1" d="M98.02,80.77c-1.74-3.18-2.54-7.51-3.46-12.53c-1.06-5.74-2.26-12.25-5.24-18.63   c-2.26-4.83-4.56-9.26-7.94-10.45c-1.38-0.48-2.84-0.38-4.22,0.3c-1.09,0.54-2.14,1.38-2.76,2.71c-0.69-0.62-1.46-1.14-2.33-1.47   c-1.59-0.6-3.31-0.48-4.97,0.33c-1.62,0.8-2.79,1.83-3.49,3.08c-0.64-0.53-1.36-0.97-2.17-1.26c-1.67-0.6-3.41-0.47-5.19,0.41   c-1.53,0.75-2.63,1.81-3.26,3.14c-2.96-5.04-6.44-11.11-7.7-13.67c-2.28-4.63-7.06-5.38-10.4-3.74c-3.29,1.62-5.45,5.65-3.21,10.21   c2.16,4.38,5.19,9.18,8.13,13.82c3.39,5.36,7.14,11.27,8.28,14.91c-0.91-0.88-2.23-2.28-4.11-4.51c-3.04-3.6-7.33-3.63-9.83-1.82   c-2.21,1.6-3.72,5.18-0.73,10.03c3.66,5.93,20.03,18.2,24.17,20.14c3,1.41,7.12,5.02,8.17,7.16c0.23,0.47,0.65,0.83,1.16,0.99   c0.18,0.06,0.37,0.08,0.56,0.08c0.33,0,0.66-0.09,0.95-0.25l28.85-16.4C98.19,82.83,98.52,81.68,98.02,80.77z M68.12,95.53   c-2.15-2.81-6.05-5.88-8.89-7.22c-3.68-1.73-19.34-13.49-22.54-18.69c-1.35-2.18-1.46-4.07-0.28-4.92c0.4-0.29,0.93-0.45,1.5-0.45   c1.02,0,2.2,0.5,3.16,1.63c5.58,6.62,7.55,7.64,9.24,7.22c0.94-0.24,1.62-0.99,1.84-2.02c0.86-4.12-2.89-10.33-9.09-20.12   c-2.88-4.55-5.87-9.26-7.93-13.46c-1.27-2.59-0.01-4.36,1.46-5.08c1.72-0.85,4.02-0.56,5.28,1.99c1.55,3.15,5.88,10.6,7.18,12.81   c5.68,9.72,5.81,9.76,6.63,10.04c0.48,0.16,1.01,0.13,1.46-0.09c0.46-0.23,0.82-0.64,0.98-1.13c0.27-0.82-0.05-1.41-0.41-2.1   c-0.54-1.03-1.97-3.75-1.38-5.58c0.22-0.69,0.75-1.23,1.62-1.66c1.09-0.54,1.78-0.39,2.2-0.24c1.41,0.51,2.58,2.3,3.39,3.89   c0.22,0.53,0.46,1.02,0.69,1.44c0.06,0.14,0.12,0.27,0.17,0.39c0.53,1.18,0.82,1.83,1.7,2.15c0.49,0.17,1.06,0.14,1.52-0.08   c0.48-0.24,0.86-0.68,1.01-1.2c0.26-0.88-0.12-1.52-0.56-2.25c-0.12-0.2-0.27-0.45-0.43-0.74c-0.18-0.39-0.38-0.83-0.61-1.28   c-0.3-0.78-0.48-1.63-0.27-2.35c0.22-0.75,0.9-1.4,2.02-1.95c0.94-0.46,1.55-0.33,1.93-0.19c2.14,0.81,3.79,4.81,4.41,6.32   c0.43,1.05,0.7,1.69,1.55,2.01c0.49,0.19,1.06,0.16,1.53-0.07c0.77-0.38,1.52-1.22,0.69-3.06c-2.18-4.86-1.07-6.09-0.05-6.59   c0.59-0.29,0.97-0.23,1.26-0.12c2.15,0.75,4.49,5.77,5.74,8.46c2.77,5.93,3.92,12.19,4.94,17.7c0.81,4.37,1.57,8.54,3.05,11.98   L68.12,95.53z"/><path path="#00077B" class="st1" d="M23.75,37.73c-0.27-3.93,1-7.72,3.58-10.69s6.17-4.76,10.09-5.03c7.73-0.54,14.61,5.06,15.63,12.74   c0.1,0.79,0.82,1.34,1.61,1.23c0.79-0.1,1.34-0.83,1.23-1.61c-1.22-9.19-9.43-15.88-18.68-15.23c-4.69,0.33-8.97,2.46-12.06,6.01   c-3.09,3.55-4.6,8.09-4.28,12.78c0.34,4.84,2.58,9.22,6.32,12.32c0.27,0.22,0.59,0.33,0.92,0.33c0.41,0,0.82-0.18,1.11-0.52   c0.51-0.61,0.42-1.52-0.19-2.02C25.91,45.45,24.03,41.78,23.75,37.73z"/><path path="#00077B" class="st1" d="M15.18,38.33c-0.9-12.83,8.81-24,21.64-24.9c12.28-0.85,23.13,8.01,24.75,20.18c0.14,1.05,1.11,1.79,2.15,1.65   c1.05-0.14,1.79-1.1,1.65-2.15C63.48,18.94,50.8,8.61,36.55,9.62c-7.24,0.51-13.84,3.8-18.6,9.27c-4.76,5.47-7.1,12.47-6.59,19.71   c0.52,7.47,3.98,14.22,9.75,19c0.36,0.3,0.79,0.44,1.22,0.44c0.55,0,1.1-0.24,1.47-0.69c0.67-0.81,0.56-2.02-0.25-2.7   C18.6,50.54,15.63,44.75,15.18,38.33z"/><path path="#00077B" class="st1" d="M6.61,38.93C5.38,21.37,18.67,6.09,36.22,4.86c16.78-1.17,31.65,10.95,33.86,27.61   c0.17,1.31,1.38,2.23,2.69,2.06c1.31-0.17,2.23-1.38,2.06-2.69C72.29,12.69,55.19-1.26,35.89,0.09C15.7,1.5,0.42,19.07,1.84,39.26   c0.71,10.1,5.38,19.22,13.18,25.68c0.45,0.37,0.99,0.55,1.53,0.55c0.69,0,1.37-0.29,1.84-0.86c0.84-1.02,0.7-2.53-0.31-3.37   C11.29,55.64,7.22,47.71,6.61,38.93z"/></g><g class="st0"><path path="#00077B" class="st1" d="M94.41,68.32L46.29,37.07c-1.04-0.67-2.36-0.65-3.38,0.05c-1.01,0.7-1.51,1.93-1.25,3.13l12.19,57.34   c0.26,1.21,1.2,2.13,2.42,2.36c0.19,0.04,0.37,0.05,0.56,0.05c1.02,0,1.98-0.51,2.54-1.38l7.6-11.7l6.75,9.83   c0.47,0.69,1.22,1.16,2.06,1.29c0.83,0.12,1.69-0.1,2.34-0.63l8.35-6.66c1.25-0.99,1.51-2.79,0.61-4.1l-6.9-9.99l13.2-2.81   c1.2-0.26,2.13-1.21,2.35-2.42C95.97,70.21,95.45,68.99,94.41,68.32z M73.8,74.1l9.74,14.1L76.4,93.9l-9.51-13.85l-9.69,14.92   L45.78,41.28L90.77,70.5L73.8,74.1z"/><path path="#00077B" class="st1" d="M25.31,45.25c-0.24-1.03-1.27-1.67-2.29-1.43l-17.34,4c-1.03,0.24-1.67,1.26-1.43,2.29   c0.2,0.88,0.99,1.48,1.86,1.48c0.14,0,0.29-0.02,0.43-0.05l17.34-4C24.91,47.3,25.55,46.27,25.31,45.25z"/><path path="#00077B" class="st1" d="M64.58,36.18c0.2,0.88,0.99,1.48,1.86,1.48c0.14,0,0.29-0.02,0.43-0.05l17.34-4c1.03-0.24,1.67-1.26,1.43-2.29   c-0.24-1.03-1.26-1.67-2.29-1.43l-17.34,4C64.99,34.13,64.35,35.16,64.58,36.18z"/><path path="#00077B" class="st1" d="M34.15,57.83c-0.89-0.56-2.07-0.29-2.63,0.61l-9.43,15.09c-0.56,0.89-0.29,2.07,0.61,2.63   c0.31,0.2,0.66,0.29,1.01,0.29c0.64,0,1.26-0.32,1.62-0.9l9.43-15.09C35.31,59.57,35.04,58.39,34.15,57.83z"/><path path="#00077B" class="st1" d="M55.51,23.65c0.31,0.2,0.66,0.29,1.01,0.29c0.64,0,1.26-0.32,1.62-0.9l9.43-15.09   c0.56-0.89,0.29-2.07-0.61-2.63c-0.89-0.56-2.07-0.29-2.63,0.61L54.9,21.03C54.34,21.92,54.62,23.09,55.51,23.65z"/><path path="#00077B" class="st1" d="M10.02,21.24l15.09,9.43c0.31,0.2,0.66,0.29,1.01,0.29c0.64,0,1.26-0.32,1.62-0.9   c0.56-0.89,0.29-2.07-0.61-2.63L12.04,18c-0.89-0.56-2.07-0.29-2.63,0.61C8.85,19.5,9.13,20.68,10.02,21.24z"/><path path="#00077B" class="st1" d="M41.72,18.82l-4-17.34c-0.24-1.03-1.27-1.67-2.29-1.43C34.41,0.29,33.77,1.31,34,2.34l4,17.34   c0.2,0.88,0.99,1.48,1.86,1.48c0.14,0,0.29-0.02,0.43-0.05C41.32,20.87,41.96,19.85,41.72,18.82z"/></g></svg>