<svg xmlns:dc="http://purl.org/dc/elements/1.1/" xmlns:cc="http://creativecommons.org/ns#" xmlns:rdf="http://www.w3.org/1999/02/22-rdf-syntax-ns#" xmlns:svg="http://www.w3.org/2000/svg" xmlns="http://www.w3.org/2000/svg" xmlns:sodipodi="http://sodipodi.sourceforge.net/DTD/sodipodi-0.dtd" xmlns:inkscape="http://www.inkscape.org/namespaces/inkscape" viewBox="0 0 12.7 15.875" version="1.1" x="0px" y="0px"><g transform="translate(0,-284.29998)"><path  style="" d="m 10.197613,287.02342 a 0.21921579,0.21921579 0 0 0 -0.119037,0.0331 l -1.1619599,0.71986 a 0.21921579,0.21921579 0 0 0 -0.070719,0.3022 l 0.049334,0.0794 a 1.5677402,1.5677402 0 0 1 -1.2286153,0.027 0.8488701,0.8488701 0 0 0 -0.2090845,-0.0539 5.6204899,5.6204899 0 0 0 -2.0629475,0.1226 0.8488701,0.8488701 0 0 0 -0.2655818,0.11751 3.1300258,3.1300258 0 0 0 -0.3194744,0.2437 1.2624454,1.2624454 0 0 1 -1.0581856,-0.29609 l 0.1037738,-0.16839 a 0.21921579,0.21921579 0 0 0 -0.070719,-0.30169 l -1.1629752,-0.7204 a 0.21921579,0.21921579 0 0 0 -0.3016839,0.0712 l -1.75720023,2.83573 a 0.21921579,0.21921579 0 0 0 0.0707194,0.30221 l 1.16248033,0.71985 a 0.21921579,0.21921579 0 0 0 0.3021788,-0.0707 l 0.051887,-0.0845 a 1.4056735,1.4056735 0 0 1 0.4309062,0.57388 l -0.06103,0.0738 a 0.56627012,0.56627012 0 0 0 0.513321,0.92081 0.56627012,0.56627012 0 0 0 0.7315742,0.80891 0.56627012,0.56627012 0 0 0 0.9386269,0.46144 0.56627012,0.56627012 0 0 0 1.1039774,0.14448 v 0 a 0.07814292,0.07814292 0 0 1 0.109895,-0.0453 2.8875467,2.8875467 0 0 0 1.3598695,0.31797 0.30374262,0.30374262 0 0 0 0.065614,-0.59931 2.9897298,2.9897298 0 0 1 -1.2698228,-0.65473 0.07841508,0.07841508 0 0 1 0.103279,-0.11802 2.8334439,2.8334439 0 0 0 1.2031928,0.62066 0.46002854,0.46002854 0 0 1 0.2431808,0.15006 0.3899709,0.3899709 0 1 0 0.4309063,-0.61863 9.1768355,9.1768355 0 0 1 -1.8716797,-0.93201 0.07814294,0.07814294 0 0 1 0.084446,-0.13073 9.0205501,9.0205501 0 0 0 1.8401359,0.91573 0.54625675,0.54625675 0 0 1 0.2355489,0.16584 0.42262999,0.42262999 0 1 0 0.4736243,-0.66491 9.1768355,9.1768355 0 0 1 -2.1621369,-1.15282 0.07835853,0.07835853 0 0 1 0.091558,-0.12719 9.0205501,9.0205501 0 0 0 2.125019,1.13349 0.57891589,0.57891589 0 0 1 0.1851988,0.11294 0.39625534,0.39625534 0 0 0 0.5356959,-0.58404 14.898467,14.898467 0 0 0 -0.092599,-0.086 1.7557894,1.7557894 0 0 0 1.0419065,-0.77583 l 0.06309,0.10174 a 0.21921579,0.21921579 0 0 0 0.301684,0.0712 l 1.163001,-0.72037 a 0.21921579,0.21921579 0 0 0 0.06968,-0.30168 l -1.757201,-2.83625 a 0.21921579,0.21921579 0 0 0 -0.183141,-0.10378 z m -0.0076,0.15618 a 0.06292995,0.06292995 0 0 1 0.05902,0.03 l 1.757201,2.83576 a 0.06292995,0.06292995 0 0 1 -0.02032,0.087 l -1.161986,0.7204 v 0 a 0.06292995,0.06292995 0 0 1 -0.08598,-0.0203 l -1.7572005,-2.83625 a 0.06292995,0.06292995 0 0 1 0.019275,-0.0865 l 1.1630015,-0.72038 a 0.06292995,0.06292995 0 0 1 0.02745,-0.01 z m -7.6865827,0.0723 a 0.06292995,0.06292995 0 0 1 0.036102,0.009 l 1.1619855,0.72037 a 0.06292995,0.06292995 0 0 1 0.020317,0.0865 L 1.9646346,290.904 a 0.06292995,0.06292995 0 0 1 -0.086478,0.0203 L 0.71520222,290.204 a 0.06292995,0.06292995 0 0 1 -0.0192753,-0.0865 l 1.75720028,-2.83625 v 0 a 0.06292995,0.06292995 0 0 1 0.050871,-0.0295 z m 4.3904349,0.99307 a 5.4642038,5.4642038 0 0 1 0.5448647,0.0412 0.69258417,0.69258417 0 0 1 0.1699348,0.0443 1.724026,1.724026 0 0 0 1.3700281,-0.0387 l 1.4707802,2.3738 a 1.7557894,1.7557894 0 0 1 -1.0978561,0.78958 14.898467,14.898467 0 0 0 -3.1542136,-2.15607 0.36466707,0.36466707 0 0 0 -0.3612027,0.0172 1.4540877,1.4540877 0 0 0 -0.3143951,0.27066 0.59196104,0.59196104 0 0 0 -0.062072,0.085 1.3495734,1.3495734 0 0 1 -0.8028145,0.60897 0.41198184,0.41198184 0 0 1 -0.4807614,-0.57336 2.9737399,2.9737399 0 0 1 1.0398742,-1.20674 0.69258417,0.69258417 0 0 1 0.2172373,-0.0956 5.4642038,5.4642038 0 0 1 1.4605957,-0.16025 z m -3.5342227,2.78282 a 0.40998427,0.40998427 0 0 1 0.3093158,0.66237 l -0.3937623,0.47925 a 0.40998427,0.40998427 0 0 1 -0.6334006,-0.52046 l 0.3937623,-0.47922 a 0.40998427,0.40998427 0 0 1 0.3240848,-0.14194 z m 1.1390635,0.15363 a 0.40998427,0.40998427 0 0 1 0.3067892,0.66341 l -0.9762918,1.1879 A 0.40998427,0.40998427 0 0 1 3.1958288,292.5123 l 0.9757709,-1.18793 a 0.40998427,0.40998427 0 0 1 0.3271063,-0.14295 z m 0.5886247,0.81907 a 0.40998427,0.40998427 0 0 1 0.3093158,0.66239 l -0.7498856,0.91268 a 0.40998427,0.40998427 0 0 1 -0.6334006,-0.52043 l 0.7498856,-0.91271 a 0.40998427,0.40998427 0 0 1 0.3240848,-0.14193 z m 0.4588814,0.97934 a 0.40998427,0.40998427 0 0 1 0.3093158,0.66239 l -0.2696452,0.32763 a 0.40998427,0.40998427 0 0 1 -0.6333746,-0.52046 l 0.2696453,-0.32763 a 0.40998427,0.40998427 0 0 1 0.3240587,-0.14193 z" fill="#00077B" stroke="none"/></g></svg>