<svg xmlns="http://www.w3.org/2000/svg" viewBox="0 0 64 80" x="0px" y="0px"><g><path fill="#00077B" d="M59.416,34.9a3.906,3.906,0,0,0-1.665-1.562,4,4,0,0,0-3.8.1L43.915,39.227A3.978,3.978,0,0,0,42.657,37a4.062,4.062,0,0,0-2.667-1H31.83a1,1,0,0,1-.713-.3l-.24-.24A5.022,5.022,0,0,0,27.35,34H19.66c-.151,0-.3.01-.5.025a5,5,0,0,0-3.039,1.438l-3.845,3.845-.788-.788a1,1,0,0,0-1.413,0L2.3,46.288a1,1,0,0,0,0,1.414L16.435,61.849a1,1,0,0,0,1.414,0l7.778-7.778a1,1,0,0,0,0-1.414l-.935-.935L26.117,50.3a1,1,0,0,1,.713-.3h13.1a4.933,4.933,0,0,0,2.5-.674l15.52-8.96a3.96,3.96,0,0,0,2-3.466A4.018,4.018,0,0,0,59.416,34.9ZM17.142,59.728,4.419,47l6.364-6.356L23.506,53.364ZM56.95,38.634,41.422,47.6a2.941,2.941,0,0,1-1.492.4H26.83a2.987,2.987,0,0,0-2.127.883l-1.425,1.425-9.586-9.586,3.845-3.845a2.988,2.988,0,0,1,1.807-.86c.11-.009.213-.017.316-.017h7.69a3.013,3.013,0,0,1,2.113.877l.24.24A2.987,2.987,0,0,0,31.83,38h8.16a2.048,2.048,0,0,1,1.344.5,1.962,1.962,0,0,1,.66,1.287,1.9,1.9,0,0,1-.133.92,1.809,1.809,0,0,1-.448.709A1.983,1.983,0,0,1,40,42H33.42a1,1,0,0,0,0,2H40a3.973,3.973,0,0,0,2.827-1.173,3.829,3.829,0,0,0,.781-1.113l11.338-6.546a2.014,2.014,0,0,1,1.914-.04,1.929,1.929,0,0,1,.823.77,2.025,2.025,0,0,1,.267,1A1.983,1.983,0,0,1,56.95,38.634Z"/><path fill="#4fb950" d="M43,34A16,16,0,1,0,27,18,16.019,16.019,0,0,0,43,34ZM43,4A14,14,0,1,1,29,18,14.015,14.015,0,0,1,43,4Z"/><path fill="#4fb950" d="M43,30A12,12,0,1,0,31,18,12.013,12.013,0,0,0,43,30ZM43,8A10,10,0,1,1,33,18,10.011,10.011,0,0,1,43,8Z"/><path fill="#4fb950" d="M43,23c-1.626,0-3-.916-3-2a1,1,0,0,0-2,0c0,1.932,1.721,3.547,4,3.919V26a1,1,0,0,0,2,0V24.919c2.279-.372,4-1.987,4-3.919,0-2.206-2.243-4-5-4-1.626,0-3-.916-3-2s1.374-2,3-2,3,.916,3,2a1,1,0,0,0,2,0c0-1.932-1.721-3.547-4-3.919V10a1,1,0,0,0-2,0v1.081c-2.279.372-4,1.987-4,3.919,0,2.206,2.243,4,5,4,1.626,0,3,.916,3,2S44.626,23,43,23Z"/></g></svg>