<svg xmlns="http://www.w3.org/2000/svg" data-name="Layer 1" viewBox="0 0 100 125" x="0px" y="0px"><title>Artboard 21</title><path fill="#00077B" d="M13.74,57.3A7.68,7.68,0,0,0,6.48,65V81.1c0,6.34,3.62,11,5.78,13.21a3.72,3.72,0,0,1,.86,1.36l.59,1.66a2.5,2.5,0,1,0,4.71-1.67L17.84,94a8.68,8.68,0,0,0-2-3.19c-1.31-1.34-4.36-5-4.36-9.71V65a2.65,2.65,0,0,1,2.42-2.73,2.5,2.5,0,0,1,2,.86,2.5,2.5,0,0,0,4.39-1.64V61a2.64,2.64,0,0,1,2.13-2.65,2.48,2.48,0,0,1,2.25.84A2.5,2.5,0,0,0,29,57.54V57a2.61,2.61,0,0,1,2-2.62,2.5,2.5,0,0,1,2.83,1.56,2.5,2.5,0,0,0,4.83-.83l.52-19.58a2.4,2.4,0,0,1,2-2.36,2.29,2.29,0,0,1,1.8.53,2.26,2.26,0,0,1,.81,1.67l1.07,37.31a2.5,2.5,0,0,0,1.12,2c2.78,1.83,6.17.23,8.08-2.3a2.41,2.41,0,0,0,.16-.25L57,67.36a6.44,6.44,0,0,1,6.4-3.11.18.18,0,0,1,.15.11.19.19,0,0,1,0,.2L53.06,84.81a6.07,6.07,0,0,1-2.23,2.37l-5,2.08A7.77,7.77,0,0,0,41,94.08l-.55,1.59a2.5,2.5,0,0,0,4.73,1.63l.55-1.59A2.75,2.75,0,0,1,47.46,94l.19-.07,5.26-2.18.29-.14a11.08,11.08,0,0,0,4.3-4.47L68,66.86a5.2,5.2,0,0,0-3.92-7.57A11.44,11.44,0,0,0,52.7,64.82L50,69.48l-.21.24-1-34.5a7.29,7.29,0,0,0-8.25-7,7.44,7.44,0,0,0-6.33,7.17l-.38,14.32a7.56,7.56,0,0,0-3.73-.24,7.42,7.42,0,0,0-5.31,4.13,7.42,7.42,0,0,0-8.75,4A7.37,7.37,0,0,0,13.74,57.3Z"/><path fill="#4fb950"  d="M77.71,65.55a2.5,2.5,0,0,0,2.5-2.5V14a2.5,2.5,0,0,0-2.5-2.5H18.62a2.5,2.5,0,0,0-2.5,2.5V45.71a2.5,2.5,0,0,0,5,0V16.49H75.21V63A2.5,2.5,0,0,0,77.71,65.55Z"/><path fill="#4fb950"  d="M97.16,62V15A14.18,14.18,0,0,0,82.83,1H17.17A14.18,14.18,0,0,0,2.84,15V53a2.5,2.5,0,0,0,5,0V15a9.18,9.18,0,0,1,9.33-9H82.83a9.18,9.18,0,0,1,9.33,9V62a9.18,9.18,0,0,1-9.33,9H71.74a2.5,2.5,0,0,0,0,5H82.83A14.18,14.18,0,0,0,97.16,62Z"/><path fill="#4fb950" d="M88.58,43.15V33.88a2.5,2.5,0,0,0-5,0v9.28a2.5,2.5,0,1,0,5,0Z"/></svg>