<svg xmlns="http://www.w3.org/2000/svg" xmlns:xlink="http://www.w3.org/1999/xlink" xml:space="preserve" version="1.1" style="shape-rendering:geometricPrecision;text-rendering:geometricPrecision;image-rendering:optimizeQuality;" viewBox="0 0 847 1058.75" x="0px" y="0px" fill-rule="evenodd" clip-rule="evenodd"><defs><style type="text/css">

    .fil0 {fill:red}

  </style></defs><g><path class="fil0" d="M423 11c228,0 413,185 413,412 0,228 -185,413 -413,413 -227,0 -412,-185 -412,-413 0,-227 185,-412 412,-412zm0 332l115 -114c52,-53 132,27 80,80l-115 114 115 115c52,52 -28,132 -80,80l-115 -115 -114 115c-53,52 -132,-28 -80,-80l114 -115 -114 -114c-53,-53 27,-133 80,-80l114 114z"/></g><text x="0" y="862" fill="#000000" font-size="5px" font-weight="bold" font-family="'Helvetica Neue', Helvetica, Arial-Unicode, Arial, Sans-serif">Created by Asmuh</text><text x="0" y="867" fill="#000000" font-size="5px" font-weight="bold" font-family="'Helvetica Neue', Helvetica, Arial-Unicode, Arial, Sans-serif">from the Noun Project</text></svg>
