<svg xmlns="http://www.w3.org/2000/svg" width="25.443" height="25.443" viewBox="0 0 25.443 25.443"><defs><style>.a{fill:#00077b;}</style></defs><g transform="translate(189 -381)"><g transform="translate(-189 381)"><path d="M-164.193,389.714a.662.662,0,0,0-.827-.382.662.662,0,0,0-.382.827,11.286,11.286,0,0,1,.572,3.562,11.483,11.483,0,0,1-11.449,11.449,11.483,11.483,0,0,1-11.449-11.449,11.483,11.483,0,0,1,11.449-11.449,11.666,11.666,0,0,1,7.506,2.8.618.618,0,0,0,.89-.064.618.618,0,0,0-.064-.89A12.543,12.543,0,0,0-176.279,381,12.759,12.759,0,0,0-189,393.721a12.759,12.759,0,0,0,12.721,12.721,12.759,12.759,0,0,0,12.721-12.721A12.021,12.021,0,0,0-164.193,389.714Z" transform="translate(189 -381)"/><path class="a" d="M-178.619,393.551a.615.615,0,0,0-.89,0,.615.615,0,0,0,0,.891l5.915,5.915a.577.577,0,0,0,.445.191.577.577,0,0,0,.445-.191l12.276-12.276a.615.615,0,0,0,0-.891.615.615,0,0,0-.89,0l-11.831,11.831Z" transform="translate(185.615 -383.184)"/></g></g></svg>