<svg xmlns="http://www.w3.org/2000/svg" width="114.629" height="260.832" viewBox="0 0 114.629 260.832"><defs><style>.a{fill:#00077b;}.b{opacity:0.4;}.c{fill:#fff;}.d{fill:#263238;}.e{opacity:0.3;}.f{fill:#455a64;}.g{fill:#ffbe9d;}.h{fill:#eb996e;}</style></defs><path class="a" d="M285.319,455.632l-.17-7.452-13.949.235.138,10.891.866.04c3.851.154,19.6.494,22.153-.324C297.213,458.1,285.319,455.632,285.319,455.632Z" transform="translate(-248.132 -198.752)"/><g class="b" transform="translate(23.205 258.296)"><path class="c" d="M291.169,459.14s4.175,1.125,3.665,1.82-16.433.939-23.464.437v-.307l18.61-.138S290.36,459.18,291.169,459.14Z" transform="translate(-271.37 -459.14)"/></g><path class="d" d="M271.12,461.445h.93l2.533.065c2.144.04,5.105.065,8.374,0s6.23-.162,8.366-.267l2.541-.146.688-.049h.235a.91.91,0,0,0-.243,0h-.688l-2.533.089c-2.144.081-5.1.17-8.366.218s-6.23.049-8.374,0h-3.22A1.1,1.1,0,0,0,271.12,461.445Z" transform="translate(-248.117 -201.206)"/><path class="d" d="M294.349,461.131a3.633,3.633,0,0,1,1.3-2.2,2.249,2.249,0,0,0-1.3,2.2Z" transform="translate(-252.55 -200.804)"/><path class="d" d="M289.218,458.873a2.963,2.963,0,0,0,.437-.542c.2-.324.324-.607.283-.631s-.235.218-.429.542S289.178,458.849,289.218,458.873Z" transform="translate(-251.57 -200.568)"/><path class="d" d="M287.809,458.242a2.154,2.154,0,0,0,.494-.332c.243-.218.4-.429.372-.461s-.251.113-.493.332S287.785,458.21,287.809,458.242Z" transform="translate(-251.302 -200.52)"/><path class="d" d="M286.91,456.8a1.619,1.619,0,0,0,.728.081,1.569,1.569,0,0,0,.728-.089,1.657,1.657,0,0,0-.728-.081A1.569,1.569,0,0,0,286.91,456.8Z" transform="translate(-251.131 -200.377)"/><path class="d" d="M286.59,455.679a1.4,1.4,0,0,0,.809.218,1.448,1.448,0,0,0,.809-.121,4.61,4.61,0,0,0-.809-.049A4.089,4.089,0,0,0,286.59,455.679Z" transform="translate(-251.07 -200.182)"/><path class="d" d="M289.78,457.332a2.427,2.427,0,0,0,.9,0,5.33,5.33,0,0,0,.955-.226,2.558,2.558,0,0,0,.542-.235.469.469,0,0,0,.218-.283.356.356,0,0,0-.146-.356,1.618,1.618,0,0,0-2.023.518,1.553,1.553,0,0,0-.283.6.615.615,0,0,0,0,.243,2.719,2.719,0,0,1,.4-.769,1.659,1.659,0,0,1,.761-.51,1.4,1.4,0,0,1,1.068.057c.146.105.089.267-.065.364a2.569,2.569,0,0,1-.5.227,5.666,5.666,0,0,1-.914.251C290.128,457.3,289.78,457.308,289.78,457.332Z" transform="translate(-251.679 -200.258)"/><path class="d" d="M289.789,457.275a.809.809,0,0,0,.1-.623,1.472,1.472,0,0,0-.259-.647.89.89,0,0,0-.752-.445.348.348,0,0,0-.267.421,1.019,1.019,0,0,0,.154.4,2.759,2.759,0,0,0,.437.534,1.36,1.36,0,0,0,.518.356,5.955,5.955,0,0,1-.437-.437,3.806,3.806,0,0,1-.38-.534c-.129-.186-.218-.526,0-.574s.453.194.6.372a1.52,1.52,0,0,1,.259.583,3.7,3.7,0,0,1,.032.6Z" transform="translate(-251.453 -200.16)"/><path class="d" d="M271.4,456.789a5.725,5.725,0,0,1,1.028,0,4.644,4.644,0,0,1,2.266.89,4.539,4.539,0,0,1,1.432,1.966c.227.6.251,1,.283,1a1.1,1.1,0,0,0,0-.283,3.742,3.742,0,0,0-.162-.753,4.3,4.3,0,0,0-1.448-2.055,4.232,4.232,0,0,0-2.354-.874,3.65,3.65,0,0,0-.769,0C271.489,456.748,271.392,456.772,271.4,456.789Z" transform="translate(-248.17 -200.369)"/><path class="d" d="M273.051,449.62a50.717,50.717,0,0,0,0,5.729,23.451,23.451,0,0,0,.073-2.864,23.215,23.215,0,0,0-.073-2.864Z" transform="translate(-248.47 -199.026)"/><path class="d" d="M279.76,459.989a8.1,8.1,0,0,0,2.039.17,8.358,8.358,0,0,0,2.039-.194c0-.049-.914,0-2.039,0A14.736,14.736,0,0,0,279.76,459.989Z" transform="translate(-249.766 -200.997)"/><path class="d" d="M276.38,460s.081.186.17.4.154.4.2.388.065-.218-.049-.461A.552.552,0,0,0,276.38,460Z" transform="translate(-249.121 -201.008)"/><path class="d" d="M275.08,458.458a.855.855,0,0,0,.21.324c.154.146.291.235.324.2s-.065-.178-.21-.324S275.112,458.426,275.08,458.458Z" transform="translate(-248.873 -200.712)"/><path class="d" d="M273.25,457.75c0,.049.194.04.4.113s.356.17.4.138-.089-.218-.34-.3S273.234,457.7,273.25,457.75Z" transform="translate(-248.523 -200.563)"/><path class="d" d="M272,457.44c0,.04.065.113.178.154s.227.04.243,0-.065-.113-.186-.162S272,457.392,272,457.44Z" transform="translate(-248.285 -200.511)"/><g class="e" transform="translate(23.116 253.911)"><path d="M271.381,455.856l13.933-.453-.049-1.683-14.006,1.254Z" transform="translate(-271.26 -453.72)"/></g><path class="a" d="M322.331,455.614l-.2-7.444-13.949.3.186,10.9h.866c3.859.129,19.6.4,22.162-.437C334.241,458.025,322.331,455.614,322.331,455.614Z" transform="translate(-255.191 -198.75)"/><g class="b" transform="translate(53.175 258.248)"><path class="c" d="M328.2,459.08s4.183,1.108,3.673,1.8-16.425,1.028-23.464.566v-.316l18.61-.235S327.392,459.137,328.2,459.08Z" transform="translate(-308.41 -459.08)"/></g><path class="d" d="M308.16,461.5h.93l2.541.057c2.144,0,5.1.04,8.374,0s6.222-.194,8.366-.307l2.532-.162.688-.057h-.7l-2.533.105c-2.136.089-5.1.194-8.366.259s-6.222.081-8.366.081H308.16Z" transform="translate(-255.187 -201.204)"/><path class="d" d="M331.389,461.079a3.787,3.787,0,0,1,1.295-2.209A2.282,2.282,0,0,0,331.389,461.079Z" transform="translate(-259.621 -200.792)"/><path class="d" d="M326.25,458.853a1.72,1.72,0,0,0,.429-.542c.194-.324.324-.615.283-.631s-.227.219-.421.542A1.569,1.569,0,0,0,326.25,458.853Z" transform="translate(-258.641 -200.565)"/><path class="d" d="M324.839,458.23a2.221,2.221,0,0,0,.485-.34c.235-.219.4-.429.372-.461s-.251.121-.485.34S324.807,458.2,324.839,458.23Z" transform="translate(-258.371 -200.516)"/><path class="d" d="M323.93,456.789a3.027,3.027,0,0,0,1.456,0,1.732,1.732,0,0,0-.728-.073,1.57,1.57,0,0,0-.728.073Z" transform="translate(-258.198 -200.378)"/><path class="d" d="M323.6,455.67a1.416,1.416,0,0,0,.809.219,1.376,1.376,0,0,0,.809-.13,5.029,5.029,0,0,0-.809,0A4.047,4.047,0,0,0,323.6,455.67Z" transform="translate(-258.135 -200.181)"/><path class="d" d="M326.81,457.315a2.364,2.364,0,0,0,.9,0,5.108,5.108,0,0,0,.947-.227,3.053,3.053,0,0,0,.542-.235.493.493,0,0,0,.218-.283.364.364,0,0,0-.146-.356,1.659,1.659,0,0,0-2.306,1.125.509.509,0,0,0,0,.243,2.67,2.67,0,0,1,.388-.809,1.659,1.659,0,0,1,.761-.51,1.4,1.4,0,0,1,1.068.049c.146.105.089.275-.065.372a2.563,2.563,0,0,1-.5.226,6.725,6.725,0,0,1-.914.259C327.15,457.282,326.81,457.29,326.81,457.315Z" transform="translate(-258.748 -200.256)"/><path class="d" d="M326.816,457.255a.922.922,0,0,0,.089-.623,1.472,1.472,0,0,0-.259-.647.906.906,0,0,0-.76-.445.364.364,0,0,0-.267.421,1.1,1.1,0,0,0,.162.4,2.757,2.757,0,0,0,.437.534,1.359,1.359,0,0,0,.518.356s-.178-.162-.437-.437a3.039,3.039,0,0,1-.38-.534c-.129-.186-.218-.526,0-.566s.461.186.6.364a1.5,1.5,0,0,1,.267.583,3.237,3.237,0,0,1,.032.6Z" transform="translate(-258.519 -200.156)"/><path class="d" d="M308.42,456.86a5.721,5.721,0,0,1,1.028,0,4.393,4.393,0,0,1,3.714,2.832c.227.6.251,1,.283,1s0-.105,0-.283a4.769,4.769,0,0,0-.17-.753,4.3,4.3,0,0,0-1.456-2.047,4.385,4.385,0,0,0-2.363-.866,3.463,3.463,0,0,0-.769.04.681.681,0,0,0-.267.081Z" transform="translate(-255.237 -200.384)"/><path class="d" d="M310.032,449.68a23.671,23.671,0,0,0-.057,2.864,23.217,23.217,0,0,0,.105,2.872,24.724,24.724,0,0,0,.065-2.872A24.053,24.053,0,0,0,310.032,449.68Z" transform="translate(-255.53 -199.038)"/><path class="d" d="M316.79,459.984a8.524,8.524,0,0,0,2.047.162,7.719,7.719,0,0,0,2.031-.21,17.252,17.252,0,0,0-2.039.04C317.7,460.016,316.8,459.984,316.79,459.984Z" transform="translate(-256.835 -200.992)"/><path class="d" d="M313.42,460.076s.073.186.17.4.154.388.2.388.065-.227-.049-.461S313.444,460.012,313.42,460.076Z" transform="translate(-256.192 -201.02)"/><path class="d" d="M312.11,458.518a.8.8,0,0,0,.21.316c.154.138.291.235.324.2s-.065-.178-.21-.324S312.142,458.486,312.11,458.518Z" transform="translate(-255.942 -200.724)"/><path class="d" d="M310.27,457.811c0,.049.2.04.4.113s.356.17.4.138-.089-.218-.348-.3S310.254,457.77,310.27,457.811Z" transform="translate(-255.59 -200.574)"/><path class="d" d="M309,457.51c0,.041.065.113.178.154s.227.04.243,0-.065-.113-.178-.162S309,457.462,309,457.51Z" transform="translate(-255.348 -200.525)"/><g class="e" transform="translate(53.061 253.903)"><path d="M308.4,455.911l13.925-.526-.057-1.675-14,1.319Z" transform="translate(-308.27 -453.71)"/></g><path class="d" d="M267.94,274.63V420.852l21.716-.841,1.869-127.726L298.9,420.529l22.137,1.076-10.907-145.7Z" transform="translate(-247.51 -165.623)"/><path class="f" d="M298.888,276.23a14.362,14.362,0,0,1,.186,2.492c.057,1.529.113,3.657.146,6v3.309a6.474,6.474,0,0,1-.445,2.711,3.035,3.035,0,0,1-1.238,1.4,1.116,1.116,0,0,1-.647.2,3.845,3.845,0,0,0,.566-.34,3.058,3.058,0,0,0,1.044-1.375,6.619,6.619,0,0,0,.34-2.6c0-1.028-.04-2.136-.065-3.3v-6a15.538,15.538,0,0,1,.113-2.492Z" transform="translate(-253.036 -165.928)"/><path class="f" d="M295.119,278.2c.04.049-.283.243-.291.744a.809.809,0,0,0,.307.688.752.752,0,0,0,.866-.065.655.655,0,0,0,.048-1.084.906.906,0,0,0-.874-.21v-.162c.178.089.267.154.251.186s-.113,0-.316,0l-.17-.04.162-.121a1.019,1.019,0,0,1,1.173.089,1.04,1.04,0,0,1-.024,1.723,1.133,1.133,0,0,1-1.343,0,1.092,1.092,0,0,1-.372-1.028.979.979,0,0,1,.348-.623C295.013,278.184,295.11,278.184,295.119,278.2Z" transform="translate(-252.584 -166.264)"/><path class="f" d="M289.939,449.31c0,.113-4.855.21-10.874.21s-10.874-.1-10.874-.21,4.855-.21,10.874-.21S289.939,449.189,289.939,449.31Z" transform="translate(-247.558 -198.927)"/><path class="f" d="M327.319,448.28c0,.121-4.855.21-10.794.21s-10.785-.089-10.785-.21,4.855-.21,10.785-.21S327.319,448.167,327.319,448.28Z" transform="translate(-254.726 -198.73)"/><path class="d" d="M277.906,158.146a1.3,1.3,0,0,1-1.837,1.537c-.858-.437-.963-1.618-.809-2.565a4.986,4.986,0,0,0,.089-2.832,6.367,6.367,0,0,0-1.473-1.618,4.134,4.134,0,0,1-1.157-3.52,3.479,3.479,0,0,1,2.427-2.743c1.262-.356,2.816,0,3.754-.882.68-.663.72-1.748,1.246-2.533.809-1.23,2.549-1.424,4.046-1.222s2.945.663,4.377.307a21.4,21.4,0,0,0,3.293-1.618,6.473,6.473,0,0,1,8.39,8.852,4.1,4.1,0,0,1-2,1.982" transform="translate(-248.414 -139.905)"/><path class="g" d="M286.293,191.028h0a7.282,7.282,0,0,0,7.242-7.363l-.089-6.918s5.809-.583,6.2-6.343.105-19.046.105-19.046h0a20.082,20.082,0,0,0-20.268,1.432l-.89.615.437,30.471a7.282,7.282,0,0,0,7.266,7.153Z" transform="translate(-249.543 -141.693)"/><path class="d" d="M302.677,164.337a.858.858,0,0,1,0-1.707h.146a.866.866,0,0,1,0,1.715A.267.267,0,0,1,302.677,164.337Z" transform="translate(-253.993 -144.243)"/><path class="d" d="M303.569,162.257c-.1.1-.639-.372-1.432-.421s-1.392.332-1.473.227.057-.218.316-.4a1.95,1.95,0,0,1,2.322.154C303.537,162.031,303.61,162.217,303.569,162.257Z" transform="translate(-253.752 -144)"/><path class="d" d="M292.6,162.672a.809.809,0,1,1-.628-.148.809.809,0,0,1,.628.148Z" transform="translate(-251.971 -144.22)"/><path class="d" d="M292.859,162.547c-.089.089-.631-.372-1.424-.421s-1.4.332-1.481.227.065-.227.324-.4a1.982,1.982,0,0,1,2.322.154C292.835,162.312,292.908,162.5,292.859,162.547Z" transform="translate(-251.708 -144.055)"/><path class="d" d="M297.029,169.432a4.175,4.175,0,0,1,1.295-.2c.21,0,.372-.049.4-.154a1.108,1.108,0,0,0-.113-.607l-.542-1.618a21.545,21.545,0,0,1-1.125-4.321,22.656,22.656,0,0,1,1.553,4.183c.178.566.34,1.117.51,1.659a1.278,1.278,0,0,1,.065.866.55.55,0,0,1-.372.316,1.5,1.5,0,0,1-.364,0A3.722,3.722,0,0,1,297.029,169.432Z" transform="translate(-253.046 -144.224)"/><path class="c" d="M293.784,172a14.563,14.563,0,0,0,3.835,1.343,2.2,2.2,0,0,1-2.638.736C293.291,173.327,293.784,172,293.784,172Z" transform="translate(-252.431 -146.032)"/><path class="h" d="M295.255,182.529a13.407,13.407,0,0,1-7.4-2.549s1.553,4.248,7.331,4.046Z" transform="translate(-251.312 -147.555)"/><path class="d" d="M299.458,152.457a9.608,9.608,0,0,1-8.091-.421c-3.034-1.44-6.538-2.1-7.282-1.489s-.866,3.714-3.819,4.677c0,0,.324,5.89-2.031,5.72s-1.068-9.321-1.068-9.321l5.664-2.921,6.271-1.3,5.931.712,4.6,1.165Z" transform="translate(-249.204 -141.336)"/><path class="g" d="M278.139,161.741c-.1-.04-3.9-1.384-3.989,2.565s3.892,3.236,3.908,3.107S278.139,161.741,278.139,161.741Z" transform="translate(-248.695 -144.025)"/><path class="h" d="M277.12,166.189a1.27,1.27,0,0,1-.186.1.7.7,0,0,1-.518,0,1.7,1.7,0,0,1-.752-1.545,2.355,2.355,0,0,1,.21-.979.809.809,0,0,1,.534-.518.348.348,0,0,1,.4.194c.057.113,0,.194.049.2s.089-.065.057-.227a.429.429,0,0,0-.146-.251.55.55,0,0,0-.38-.113.987.987,0,0,0-.736.6,2.363,2.363,0,0,0-.259,1.092,1.8,1.8,0,0,0,.963,1.732.728.728,0,0,0,.631-.1C277.112,166.286,277.128,166.2,277.12,166.189Z" transform="translate(-248.931 -144.323)"/><path class="d" d="M276.59,146.5a1.877,1.877,0,0,1,1.375.049,1.812,1.812,0,0,1,1.068.866,6.472,6.472,0,0,0-1.141-.68,6.862,6.862,0,0,0-1.3-.235Z" transform="translate(-249.161 -141.144)"/><path class="d" d="M279.492,143.61c.065,0,0,.809.1,1.82a8.09,8.09,0,0,0,.55,1.715,1.767,1.767,0,0,1-.332-.429,3.859,3.859,0,0,1-.413-1.254A4.142,4.142,0,0,1,279.492,143.61Z" transform="translate(-249.685 -140.612)"/><path class="d" d="M299.57,160c0-.049.154-.186.469-.316a3.512,3.512,0,0,1,1.327-.235,3.762,3.762,0,0,1,1.319.259c.316.138.485.283.461.324a16.561,16.561,0,0,0-1.788-.194C300.379,159.83,299.619,160.105,299.57,160Z" transform="translate(-253.548 -143.636)"/><path class="d" d="M288.7,158.97a1.221,1.221,0,0,1,.469-.307,3.422,3.422,0,0,1,1.319-.243,3.536,3.536,0,0,1,1.319.267c.316.138.485.275.461.324a16.562,16.562,0,0,0-1.78-.194C289.517,158.816,288.74,159.075,288.7,158.97Z" transform="translate(-251.473 -143.439)"/><path class="d" d="M298.7,160.9a.729.729,0,0,1,0,.227v1.626a3.8,3.8,0,0,0,.186,1.286,3.455,3.455,0,0,0,.809,1.311,3.383,3.383,0,0,0,1.562.858,3.114,3.114,0,0,0,.955.081,2.994,2.994,0,0,0,.987-.21,3.317,3.317,0,0,0,2.152-3.236V160.9l.089.089-4.855-.049h-1.942a3.668,3.668,0,0,1,.485,0h1.4l4.944-.049h.089v2.039a3.528,3.528,0,0,1-2.274,3.423,3.375,3.375,0,0,1-1.044.21,3.286,3.286,0,0,1-1.02-.1,3.5,3.5,0,0,1-1.618-.914,3.551,3.551,0,0,1-.85-1.384,3.634,3.634,0,0,1-.162-1.335v-1.642a1.667,1.667,0,0,1,.105-.291Z" transform="translate(-253.361 -143.911)"/><path class="d" d="M287.3,160.658v1.853a3.739,3.739,0,0,0,.186,1.278,3.334,3.334,0,0,0,.809,1.319,3.4,3.4,0,0,0,1.553.858,3.171,3.171,0,0,0,.963.081,3.043,3.043,0,0,0,.987-.21,3.237,3.237,0,0,0,1.618-1.311,3.375,3.375,0,0,0,.534-1.926v-1.942l.1.089L289.2,160.7h-1.942a3.517,3.517,0,0,1,.486,0h1.392l4.952-.049h.089v2.039a3.5,3.5,0,0,1-2.274,3.423,3.375,3.375,0,0,1-1.044.21,3.236,3.236,0,0,1-1.011-.1,3.471,3.471,0,0,1-2.476-2.3,3.826,3.826,0,0,1-.17-1.335c0-.388,0-.728,0-1.011v-.631A.809.809,0,0,1,287.3,160.658Z" transform="translate(-251.185 -143.865)"/><path class="d" d="M298.225,161.215a8.788,8.788,0,0,1-2.605,0A8.091,8.091,0,0,1,298.225,161.215Z" transform="translate(-252.794 -143.953)"/><path class="d" d="M278.43,161.271a32.294,32.294,0,0,1,3.6-.113c1.99,0,3.6.04,3.6.089a32.289,32.289,0,0,1-3.6.113A33.98,33.98,0,0,1,278.43,161.271Z" transform="translate(-249.512 -143.96)"/><path class="g" d="M325.775,225.4s2.573,15.373,4.345,16.085c9.806,3.876,21.563,3.584,25.73,3.325.5-.324,1.092-.728,1.764-1.238a6.394,6.394,0,0,0,1.473-1.618,10.17,10.17,0,0,0,1.262-2.427.809.809,0,0,1,1.537-.243c.275.7-.372,2.573-1.562,5.105,0,0-.655,1.359.542,1.78s8.827,3.236,9.45,3.957.445,1.562-.485,1.618A44.4,44.4,0,0,1,364,250.39s6.392,1.456,6.473,2.168c.1,1.076-2.3,1.165-6.473-.372,0,0,6.683.631,6.287,2.233-.194.809-6.182-.583-6.182-.583-.518.744,6.182.639,6.157,1.659,0,.469-.939.769-4.046.583-1.893-.121-5.025-.356-8.14-.566v.049s-39.93,5.939-43.142-11.934c-2.168-12.137-1.473-11.8-2.233-18.245" transform="translate(-256.054 -156.221)"/><path class="h" d="M371.1,257.89c-.049,0-.275-.283-.728-.688a4.992,4.992,0,0,0-2.063-1.125l-.445-.121.4-.267c.089-.057.186-.113.283-.186a6.11,6.11,0,0,0,1.731-1.934c.34-.591.469-1,.534-.979a2.071,2.071,0,0,1-.267,1.117,5.154,5.154,0,0,1-1.756,2.136c-.105.081-.21.146-.307.21l-.057-.38A4.45,4.45,0,0,1,370.571,257C371,257.493,371.137,257.865,371.1,257.89Z" transform="translate(-266.584 -161.415)"/><path class="h" d="M381.364,257.675a17.465,17.465,0,0,1-3.018-.866,18.308,18.308,0,0,1-2.986-.979A14.038,14.038,0,0,1,381.364,257.675Z" transform="translate(-268.015 -162.034)"/><path class="h" d="M381.421,259.631A47.208,47.208,0,0,1,376,258.32a11.554,11.554,0,0,1,5.421,1.311Z" transform="translate(-268.138 -162.509)"/><path class="g" d="M281.081,283.074a9.412,9.412,0,0,1-2.549.146,6.108,6.108,0,0,1-2.007-.437l-.809-.348a7.153,7.153,0,0,1-3.01-2.508c-3.3-4.855-13.237-19.459-14.613-22.655-1.618-3.843,4.547-33.246,4.547-33.246l-12.218-3.965s-5.923,25.892-5.607,38.586c.2,8.091,22.4,30.455,22.42,30.479a78.137,78.137,0,0,0,4.045,7c2.185,3.075,2.468,2.889,2.783,2.573.809-.849-3.641-5.567-2.088-5.114s4.814,6.408,5.664,5.486c1.1-1.206-3.681-6.052-4.046-6.473s.243-1,.558-.583c.461.6,5.4,6.748,6.473,5.583.607-.647-.655-1.618-.655-1.618s-5.049-5.421-4.515-5.955,3.617,2.541,4.58,3.649,1.861,1.1,2,.275c.089-.566-2.775-4.046-3.754-5.122s-3.706-3.989-1.189-3.649,4.571-.348,5-.922S281.834,282.839,281.081,283.074Z" transform="translate(-243.094 -155.206)"/><path class="a" d="M265.339,219.315l-.138,17.962-.955,20.648,42.559,1.1-2.743-22.162-1.092-20.972s3.325-13.876,2.508-16a8.706,8.706,0,0,0-5.162-5.284c-.55-.316-8.391-2.824-11.328-2.986V186.15c-4.855.477-7.4,6.246-7.4,6.246-2.023-4.855-9.62-5.591-9.62-5.591l.138,5.041a35.769,35.769,0,0,0-7.962,1.456c-4.24,1.529-6.578,2.63-9.709,5.785-2.185,2.185-4.046,10.138-4.612,13.82" transform="translate(-244.051 -148.733)"/><path class="d" d="M285.425,191.43a1.991,1.991,0,0,0-1.424.186,2.378,2.378,0,0,0-1.011,1.173,5.664,5.664,0,0,0-.316.906c-.049.162-.089.332-.138.5a1.173,1.173,0,0,1-.267.583.631.631,0,0,1-.372.186.809.809,0,0,1-.356-.073l-.494-.227-.89-.445-1.473-.761a6.222,6.222,0,0,1-1.335-.809,5.663,5.663,0,0,1,1.464.526l1.545.688.9.421.469.21c.146.057.2.049.275,0a3.787,3.787,0,0,0,.307-.906,5.256,5.256,0,0,1,.364-.963,2.564,2.564,0,0,1,1.222-1.27,1.788,1.788,0,0,1,1.181-.138C285.32,191.292,285.433,191.414,285.425,191.43Z" transform="translate(-249.306 -149.692)"/><path class="d" d="M296.928,192.2a24.1,24.1,0,0,1-3.293,2.735l-.275.2-.057-.34a2.844,2.844,0,0,0-.081-.429,4.976,4.976,0,0,0-1.238-2.9,4.352,4.352,0,0,0-1.125-.712,1.618,1.618,0,0,1,1.327.486,3.447,3.447,0,0,1,.939,1.254,7.564,7.564,0,0,1,.51,1.8l.081.437-.332-.138A23.07,23.07,0,0,1,296.928,192.2Z" transform="translate(-251.885 -149.609)"/><path class="a" d="M312.958,197.12s6.991,2.379,10.033,11.821a146.948,146.948,0,0,1,4.531,18.407l-11.91,4.046L311.17,204.3Z" transform="translate(-255.762 -150.827)"/><path class="a" d="M328.423,234.48s1.246,5.542,1.966,6.562.5,1.812,6.109,3.123,12.655,2.063,15.147,1.748l1.748.065,1.165,12.29s-14.054,1.99-23.521-.413-13.617-5.664-14.127-7.792-1.019-12.517-1.019-12.517Z" transform="translate(-256.663 -157.958)"/><path class="d" d="M293.4,206.583c0-.049.324-.194.712.138a.963.963,0,0,1,.324.809.93.93,0,0,1-.744.809.914.914,0,0,1-1-.372.963.963,0,0,1-.057-.858c.21-.469.591-.485.583-.437a1.173,1.173,0,0,0-.3.534.688.688,0,0,0,.1.542.558.558,0,0,0,.591.178.534.534,0,0,0,.445-.413.688.688,0,0,0-.146-.534C293.676,206.639,293.4,206.647,293.4,206.583Z" transform="translate(-252.209 -152.619)"/><path class="d" d="M295.321,225.187a.614.614,0,0,1,.712.146.93.93,0,1,1-1.424,1.189.963.963,0,0,1-.057-.858c.21-.469.591-.486.583-.429a1.266,1.266,0,0,0-.3.526.712.712,0,0,0,.1.55.591.591,0,0,0,.591.178.566.566,0,0,0,.453-.421.72.72,0,0,0-.154-.534C295.6,225.252,295.329,225.252,295.321,225.187Z" transform="translate(-252.576 -156.174)"/><path class="d" d="M296.51,243.344c0-.04.316-.194.712.146a.935.935,0,1,1-1.481.332c.2-.469.583-.486.574-.429a1.2,1.2,0,0,0-.291.526.68.68,0,0,0,.1.55.615.615,0,0,0,1.036-.243.688.688,0,0,0-.154-.534C296.785,243.408,296.51,243.408,296.51,243.344Z" transform="translate(-252.801 -159.637)"/><path class="d" d="M297.7,263.113c0-.049.324-.194.712.138a.89.89,0,0,1-.421,1.57.93.93,0,0,1-1-.372.963.963,0,0,1-.057-.858c.21-.469.591-.494.583-.437a1.177,1.177,0,0,0-.3.526.7.7,0,0,0,.1.55.558.558,0,0,0,.591.178.55.55,0,0,0,.445-.413.7.7,0,0,0-.146-.542C297.976,263.169,297.7,263.169,297.7,263.113Z" transform="translate(-253.03 -163.41)"/><path class="d" d="M266.73,221.978a5.665,5.665,0,0,1,.081-1.084c.081-.809.194-1.772.324-2.953s.283-2.727.421-4.377c.057-.809.121-1.691.194-2.589a17.331,17.331,0,0,0,0-2.751,5.955,5.955,0,0,0-.809-2.557,5.542,5.542,0,0,0-1.748-1.772,9.005,9.005,0,0,0-4.046-1.286,25.08,25.08,0,0,0-2.953-.04,6.613,6.613,0,0,1-1.084,0,4.692,4.692,0,0,1,1.076-.162,20.113,20.113,0,0,1,2.986-.081,8.9,8.9,0,0,1,4.264,1.254,5.979,5.979,0,0,1,1.893,1.877,6.335,6.335,0,0,1,.809,2.735,17.276,17.276,0,0,1,0,2.824c-.073.9-.146,1.764-.227,2.589-.154,1.659-.332,3.139-.5,4.385s-.34,2.241-.461,2.937a5,5,0,0,1-.218,1.052Z" transform="translate(-245.443 -151.816)"/><g class="e" transform="translate(28.011 41.66)"><path d="M277.31,192.693s5.146,5.3,5.858,4.515,1.036-5.882,3.123-4.855a2,2,0,0,0-1.295-.93c-.809-.081-2.079-.2-2.719,2.711,0,0,0,.906-.688.639S277.31,192.693,277.31,192.693Z" transform="translate(-277.31 -191.393)"/></g><g class="e" transform="translate(38.328 41.139)"><path d="M290.06,191.858a1.424,1.424,0,0,1,1.359,1.125,33.982,33.982,0,0,1,.34,4.191l4.563-4.507-2.994,2.079s-.4-3.544-2.622-4Z" transform="translate(-290.06 -190.75)"/></g><g class="e" transform="translate(20.163 63.6)"><path d="M269.584,218.51l3.8,45.593H267.61l.858-18.82.235-20.171Z" transform="translate(-267.61 -218.51)"/></g><path class="c" d="M270.051,203.953a.808.808,0,0,1,.259-.267,2.274,2.274,0,0,1,1-.4,1.974,1.974,0,0,1,1.659.4,2.379,2.379,0,0,1,.413,2.225,4.264,4.264,0,0,1-1.618,2.241c-.809.615-1.675,1.125-2.589,1.707-1.853,1.149-3.859,2.427-6.028,3.73a3.731,3.731,0,0,1-1.861.55,1.974,1.974,0,0,1-1.7-.93,2.111,2.111,0,0,1,0-1.861,4.328,4.328,0,0,1,1.084-1.359,34.273,34.273,0,0,1,4.677-3.431c1.4-.866,2.565-1.513,3.374-1.958a9.914,9.914,0,0,1,1.278-.647,9.168,9.168,0,0,1-1.2.809c-.809.485-1.918,1.165-3.293,2.063a36.847,36.847,0,0,0-4.58,3.463,4.118,4.118,0,0,0-.979,1.238,1.755,1.755,0,0,0,0,1.5,1.537,1.537,0,0,0,1.343.7,3.326,3.326,0,0,0,1.618-.5l6.028-3.69c.922-.574,1.829-1.076,2.581-1.618a4,4,0,0,0,1.5-2.047,2.144,2.144,0,0,0-.2-2.023,1.845,1.845,0,0,0-1.481-.4A2.654,2.654,0,0,0,270.051,203.953Z" transform="translate(-245.875 -151.996)"/><path class="c" d="M291.281,211.833a.809.809,0,0,1,.259-.267,2.274,2.274,0,0,1,1-.4,1.974,1.974,0,0,1,1.659.4,2.379,2.379,0,0,1,.413,2.225A4.345,4.345,0,0,1,293,216.032c-.809.615-1.675,1.125-2.589,1.707-1.853,1.149-3.859,2.427-6.028,3.722a3.657,3.657,0,0,1-1.869.55,1.934,1.934,0,0,1-1.691-.922,2.112,2.112,0,0,1,0-1.861,4.223,4.223,0,0,1,1.084-1.359,34.273,34.273,0,0,1,4.677-3.431c1.4-.866,2.565-1.513,3.374-1.958a9.907,9.907,0,0,1,1.278-.647,9.492,9.492,0,0,1-1.2.809c-.809.494-1.918,1.173-3.293,2.071a36.846,36.846,0,0,0-4.58,3.463,4.116,4.116,0,0,0-.979,1.238,1.707,1.707,0,0,0,0,1.5,1.545,1.545,0,0,0,1.343.712,3.35,3.35,0,0,0,1.618-.5l6.028-3.69c.914-.574,1.829-1.076,2.573-1.618a3.965,3.965,0,0,0,1.513-2.047,2.144,2.144,0,0,0-.283-1.974,1.853,1.853,0,0,0-1.481-.4,2.516,2.516,0,0,0-1.214.445Z" transform="translate(-249.927 -153.5)"/><path class="c" d="M285.333,239.448a.874.874,0,0,1,.372.049,2.209,2.209,0,0,1,.922.558,2.007,2.007,0,0,1,.68,1.57,2.379,2.379,0,0,1-1.521,1.667,4.321,4.321,0,0,1-2.743.089c-.963-.243-1.91-.663-2.929-1.036-2.031-.809-4.256-1.618-6.6-2.557a3.81,3.81,0,0,1-1.57-1.157,1.958,1.958,0,0,1-.283-1.909,2.128,2.128,0,0,1,1.5-1.117,4.313,4.313,0,0,1,1.74.049,33.679,33.679,0,0,1,5.55,1.618c1.545.591,2.759,1.133,3.6,1.513a9.172,9.172,0,0,1,1.286.623,8.4,8.4,0,0,1-1.351-.477c-.858-.324-2.1-.809-3.633-1.375a36.991,36.991,0,0,0-5.526-1.562,4,4,0,0,0-1.618-.04,1.748,1.748,0,0,0-1.206.9,1.545,1.545,0,0,0,.243,1.5,3.285,3.285,0,0,0,1.4,1.011l6.57,2.581c1.02.388,1.966.809,2.88,1.06a3.989,3.989,0,0,0,2.541,0,2.136,2.136,0,0,0,1.4-1.416,1.813,1.813,0,0,0-.566-1.424A2.687,2.687,0,0,0,285.333,239.448Z" transform="translate(-248.195 -158.16)"/><path class="c" d="M315.334,204.066a.809.809,0,0,1,.372,0,2.241,2.241,0,0,1,.922.558,1.982,1.982,0,0,1,.688,1.57,2.371,2.371,0,0,1-1.529,1.667,4.264,4.264,0,0,1-2.743.089,28.911,28.911,0,0,1-2.921-1.036c-2.039-.809-4.264-1.618-6.61-2.557a3.6,3.6,0,0,1-1.562-1.157,1.934,1.934,0,0,1-.283-1.909,2.12,2.12,0,0,1,1.489-1.117,4.312,4.312,0,0,1,1.74.049,34.6,34.6,0,0,1,5.559,1.659c1.537.6,2.759,1.133,3.6,1.513a8.129,8.129,0,0,1,1.278.631,10.207,10.207,0,0,1-1.343-.477c-.858-.332-2.1-.809-3.641-1.384a36.7,36.7,0,0,0-5.526-1.562,4.142,4.142,0,0,0-1.618,0,1.715,1.715,0,0,0-1.206.89,1.545,1.545,0,0,0,.251,1.5A3.236,3.236,0,0,0,303.642,204l6.578,2.581c1.011.388,1.966.809,2.872,1.06a4.046,4.046,0,0,0,2.549,0,2.144,2.144,0,0,0,1.4-1.424,1.869,1.869,0,0,0-.566-1.424,2.476,2.476,0,0,0-1.141-.728Z" transform="translate(-253.923 -151.397)"/><path class="c" d="M295.544,254.383a.809.809,0,0,1,.227-.3,2.241,2.241,0,0,1,.947-.518,1.99,1.99,0,0,1,1.7.2,2.354,2.354,0,0,1,.672,2.152,4.313,4.313,0,0,1-1.295,2.427,30.228,30.228,0,0,1-2.371,2.007c-1.691,1.367-3.536,2.872-5.526,4.434a3.633,3.633,0,0,1-1.788.769,1.918,1.918,0,0,1-1.788-.712,2.136,2.136,0,0,1-.218-1.853,4.491,4.491,0,0,1,.914-1.481,34.336,34.336,0,0,1,4.232-3.973c1.278-1.028,2.363-1.812,3.107-2.346a8.37,8.37,0,0,1,1.189-.809,9.029,9.029,0,0,1-1.092.93c-.712.574-1.764,1.392-3.018,2.427a36.543,36.543,0,0,0-4.118,4,3.867,3.867,0,0,0-.809,1.343,1.715,1.715,0,0,0,.162,1.489,1.537,1.537,0,0,0,1.424.542,3.309,3.309,0,0,0,1.578-.7l5.526-4.394c.809-.688,1.691-1.295,2.363-1.958a4.046,4.046,0,0,0,1.254-2.209,2.136,2.136,0,0,0-.526-1.926,1.821,1.821,0,0,0-1.513-.227A2.532,2.532,0,0,0,295.544,254.383Z" transform="translate(-250.954 -161.582)"/><path class="c" d="M313.744,227.1a.809.809,0,0,1,.227-.3,2.24,2.24,0,0,1,.947-.518,1.99,1.99,0,0,1,1.7.2,2.354,2.354,0,0,1,.671,2.152,4.312,4.312,0,0,1-1.295,2.427,30.209,30.209,0,0,1-2.371,2.007c-1.691,1.367-3.536,2.872-5.526,4.434a3.633,3.633,0,0,1-1.788.809,1.918,1.918,0,0,1-1.788-.712,2.136,2.136,0,0,1-.218-1.853,4.491,4.491,0,0,1,.914-1.481,34.906,34.906,0,0,1,4.224-3.973c1.286-1.028,2.371-1.812,3.115-2.346a8.375,8.375,0,0,1,1.189-.809,9.036,9.036,0,0,1-1.092.93c-.712.574-1.764,1.392-3.018,2.427a37.219,37.219,0,0,0-4.126,4,3.974,3.974,0,0,0-.809,1.343,1.715,1.715,0,0,0,.162,1.489,1.537,1.537,0,0,0,1.424.542,3.309,3.309,0,0,0,1.578-.7l5.526-4.393c.85-.688,1.691-1.295,2.363-1.958a4.046,4.046,0,0,0,1.254-2.209,2.152,2.152,0,0,0-.526-1.926,1.82,1.82,0,0,0-1.513-.227,2.532,2.532,0,0,0-1.222.639Z" transform="translate(-254.428 -156.374)"/><path class="c" d="M360.09,253.218a5.711,5.711,0,0,1-.744.7l-2.112,1.8L354,258.332a3.972,3.972,0,0,1-2.29,1.052,2.015,2.015,0,0,1-1.343-.421,1.772,1.772,0,0,1-.615-1.327,3.641,3.641,0,0,1,1.149-2.427c.574-.631,1.149-1.222,1.715-1.764a39.241,39.241,0,0,1,3.164-2.686c.93-.712,1.707-1.27,2.249-1.618a5.154,5.154,0,0,1,.866-.55,4.978,4.978,0,0,1-.769.688l-2.16,1.748a39.066,39.066,0,0,0-3.083,2.735c-.55.542-1.108,1.125-1.667,1.756a3.237,3.237,0,0,0-1.044,2.168,1.375,1.375,0,0,0,.461,1.02,1.618,1.618,0,0,0,1.068.332,3.625,3.625,0,0,0,2.063-.947L357,255.54l2.217-1.683a4.6,4.6,0,0,1,.874-.639Z" transform="translate(-263.127 -160.652)"/><path class="c" d="M335.332,251.085a.81.81,0,0,1,.34.138,2.282,2.282,0,0,1,.736.809,2,2,0,0,1,.259,1.691,2.363,2.363,0,0,1-1.926,1.189,4.344,4.344,0,0,1-2.662-.655c-.858-.5-1.659-1.157-2.533-1.8-1.748-1.311-3.657-2.719-5.664-4.264a3.682,3.682,0,0,1-1.2-1.537,1.95,1.95,0,0,1,.251-1.918,2.112,2.112,0,0,1,1.74-.663,4.386,4.386,0,0,1,1.618.518,33.979,33.979,0,0,1,4.9,3.115c1.319.987,2.346,1.845,3.05,2.427a9.161,9.161,0,0,1,1.068.955,9.556,9.556,0,0,1-1.173-.809c-.736-.55-1.788-1.359-3.115-2.314a35.786,35.786,0,0,0-4.9-3.01,3.916,3.916,0,0,0-1.5-.461,1.723,1.723,0,0,0-1.408.526,1.545,1.545,0,0,0-.17,1.5,3.293,3.293,0,0,0,1.068,1.359l5.623,4.28c.866.647,1.667,1.311,2.476,1.8a4.046,4.046,0,0,0,2.427.672,2.152,2.152,0,0,0,1.74-.987,1.829,1.829,0,0,0-.162-1.521A2.427,2.427,0,0,0,335.332,251.085Z" transform="translate(-257.933 -159.789)"/><path class="d" d="M318.19,259.216a1.618,1.618,0,0,1-.105-.413l-.218-1.189c-.178-1.044-.413-2.549-.7-4.41-.55-3.73-1.222-8.9-1.926-14.564s-1.359-10.866-1.9-14.564l-.647-4.418c-.073-.477-.129-.874-.178-1.2a2.334,2.334,0,0,1,0-.421,1.392,1.392,0,0,1,.121.4c.065.316.146.712.251,1.189.2,1.036.477,2.533.809,4.393.615,3.722,1.319,8.9,2.023,14.564s1.335,10.81,1.8,14.564c.227,1.821.421,3.317.558,4.426.057.485.105.882.146,1.206a1.506,1.506,0,0,1-.04.429Z" transform="translate(-256.018 -154.82)"/><g class="e" transform="translate(57.382 67.29)"><path d="M313.61,223.07c2.427,8.382,3.236,15.729,7.792,22.655a21.305,21.305,0,0,0,6.335,6.222c4.919,3.131,10.866,4.167,16.676,4.709h3.932a71.479,71.479,0,0,1-15.98-.558s-10.988-1.958-15.284-7.007Z" transform="translate(-313.61 -223.07)"/></g><path class="d" d="M293.748,257.883a4.234,4.234,0,0,1-.065-.655c0-.461-.057-1.084-.105-1.869-.081-1.659-.194-4-.34-6.869-.3-5.793-.809-13.8-1.465-22.655s-1.384-16.829-1.9-22.655c-.243-2.864-.445-5.194-.591-6.853q-.1-1.165-.146-1.869a3.236,3.236,0,0,1,0-.647,3.552,3.552,0,0,1,.105.639c.057.469.129,1.084.227,1.861.178,1.618.421,3.981.728,6.837.591,5.785,1.343,13.755,2.023,22.655s1.117,16.854,1.343,22.655c.113,2.9.178,5.251.21,6.877V257.2a3.413,3.413,0,0,1-.024.68Z" transform="translate(-251.553 -150.195)"/><path class="a" d="M264.4,287.412l9.564-8.981s-14.346-19.1-14.839-22.582,5.025-32.235,5.025-32.235l-15.478-5.874s-5.987,28.4-5.979,40.723C242.7,264.2,264.4,287.412,264.4,287.412Z" transform="translate(-242.69 -154.763)"/><path class="c" d="M251.72,233.843a.809.809,0,0,1-.146-.34,2.265,2.265,0,0,1,0-1.084,1.99,1.99,0,0,1,1.036-1.359,2.354,2.354,0,0,1,2.2.51,4.3,4.3,0,0,1,1.424,2.338,30.373,30.373,0,0,1,.534,3.058c.316,2.16.68,4.507,1.02,7.015a3.673,3.673,0,0,1-.243,1.926,1.942,1.942,0,0,1-1.521,1.189,2.168,2.168,0,0,1-1.691-.728,4.546,4.546,0,0,1-.809-1.537,33.708,33.708,0,0,1-1.286-5.664c-.235-1.618-.364-2.961-.453-3.876a8.576,8.576,0,0,1-.081-1.432,9.042,9.042,0,0,1,.243,1.416c.138.906.316,2.225.591,3.843a36.416,36.416,0,0,0,1.351,5.575,4.127,4.127,0,0,0,.744,1.392A1.732,1.732,0,0,0,256,246.7a1.537,1.537,0,0,0,1.189-.955,3.334,3.334,0,0,0,.194-1.707c-.348-2.484-.68-4.855-.979-7-.162-1.076-.259-2.112-.494-3.026a4.046,4.046,0,0,0-1.254-2.209,2.152,2.152,0,0,0-1.934-.518,1.812,1.812,0,0,0-.955,1.189A2.54,2.54,0,0,0,251.72,233.843Z" transform="translate(-244.373 -157.289)"/><path class="c" d="M272.963,297.264a5.7,5.7,0,0,1-1-.219l-2.686-.744-3.973-1.165a3.949,3.949,0,0,1-2.168-1.295,2.038,2.038,0,0,1-.413-1.351,1.8,1.8,0,0,1,.752-1.254,3.6,3.6,0,0,1,2.67-.437q1.27.17,2.427.413a39.316,39.316,0,0,1,4.005,1.092c1.117.364,2.015.688,2.63.922a4.724,4.724,0,0,1,.947.4,4.182,4.182,0,0,1-1-.243l-2.67-.809c-1.125-.324-2.476-.7-4-1-.752-.146-1.562-.275-2.427-.38a3.237,3.237,0,0,0-2.371.364,1.376,1.376,0,0,0-.583.955,1.618,1.618,0,0,0,.332,1.068,3.6,3.6,0,0,0,1.942,1.173l3.94,1.238,2.654.874A4.5,4.5,0,0,1,272.963,297.264Z" transform="translate(-246.513 -168.692)"/><path class="c" d="M258.978,271.917a.809.809,0,0,1,.34.146,2.176,2.176,0,0,1,.736.809,1.99,1.99,0,0,1,.227,1.7,2.37,2.37,0,0,1-1.918,1.189,4.3,4.3,0,0,1-2.662-.663c-.858-.5-1.659-1.157-2.533-1.8-1.748-1.3-3.657-2.719-5.664-4.264a3.681,3.681,0,0,1-1.189-1.537,1.934,1.934,0,0,1,.251-1.909,2.12,2.12,0,0,1,1.74-.672,4.384,4.384,0,0,1,1.618.518,34.663,34.663,0,0,1,4.9,3.115c1.319,1,2.346,1.845,3.05,2.427a9.154,9.154,0,0,1,1.068.955,8.824,8.824,0,0,1-1.173-.809c-.736-.55-1.788-1.367-3.123-2.322a37.87,37.87,0,0,0-4.855-3.01,4.207,4.207,0,0,0-1.513-.461,1.748,1.748,0,0,0-1.4.526,1.537,1.537,0,0,0-.17,1.513,3.236,3.236,0,0,0,1.068,1.351L253.4,273c.866.647,1.667,1.319,2.476,1.8a4.046,4.046,0,0,0,2.427.663,2.144,2.144,0,0,0,1.74-.987,1.837,1.837,0,0,0-.162-1.521A2.573,2.573,0,0,0,258.978,271.917Z" transform="translate(-243.354 -163.767)"/></svg>