<svg xmlns="http://www.w3.org/2000/svg" width="83.241" height="254.292" viewBox="0 0 83.241 254.292"><defs><style>.a{fill:#a36957;}.b{fill:#455a64;}.c{fill:#263238;}.d{fill:#b78876;}.e{fill:#fff;}.f{fill:#ffbe9d;}.g{fill:#eb996e;}.h{fill:#00077b;}.i{opacity:0.3;}</style></defs><path class="a" d="M379.874,304.579c1.529.534,4.046-5.72,4.329-6.23s1-.17.744.283c-.364.647-4.046,7.557-2.541,8.091.809.3,1.23-1.238,1.23-1.238s2.961-6.716,3.657-6.473-.9,4.288-1.529,5.6-.267,2.12.534,1.926c.55-.138,2.589-4.11,3.188-5.421s2.177-4.936,2.856-2.516,2.112,4.046,2.8,4.191a.809.809,0,0,0,.663-1.327,9.307,9.307,0,0,1-1.133-2.274,4.467,4.467,0,0,1-.388-1.99c0-.372.057-.712.081-1.036h0l.04-1.068c.081-1.295.081-2,.081-2h0l2.063-53.547L384.818,226.5l-.243,65.028h.049a71.651,71.651,0,0,0-4.539,6.076c-1.95,3.2-1.659,3.374-1.254,3.544,1.108.437,3.641-5.494,3.835-3.9S378.709,304.158,379.874,304.579Z" transform="translate(-357.664 -166.347)"/><path class="b" d="M352.983,327.51H402.7v33.068H352.74Z" transform="translate(-352.74 -185.629)"/><path class="c" d="M360.123,327.51h49.72v33.068H359.88Z" transform="translate(-354.103 -185.629)"/><path class="c" d="M373.8,325.668s.243-7.808,9.086-7.808,13.755.073,13.755.073v2.152H382.862s-6.06-.348-5.939,5.583Z" transform="translate(-356.76 -183.787)"/><path class="c" d="M355.663,327.78a7.725,7.725,0,0,1,.081,1.343c0,.939.04,2.168.065,3.657.04,3.091.065,7.355.065,12.064,0,5.308,0,10.041-.081,13.108v.065l-.04.04-2.193,1.918a6.1,6.1,0,0,1-.809.655,5.335,5.335,0,0,1,.72-.761l2.112-2.015-.049.1c-.04-3.066-.073-7.8-.073-13.108,0-4.709,0-8.973.065-12.064,0-1.489.049-2.719.065-3.657A7.728,7.728,0,0,1,355.663,327.78Z" transform="translate(-352.742 -185.68)"/><path class="c" d="M356.348,365.068c.081-.081.809.445,1.57,1.189s1.367,1.4,1.287,1.489-.809-.445-1.57-1.181S356.267,365.157,356.348,365.068Z" transform="translate(-353.427 -192.797)"/><path class="b" d="M386.081,346.156a1.7,1.7,0,0,1-.34.04,9.762,9.762,0,0,1-.987,0,22.1,22.1,0,0,1-3.6-.267,25.479,25.479,0,0,1-18.82-13.31,22.241,22.241,0,0,1-1.44-3.309,9.765,9.765,0,0,1-.291-.939c-.065-.21-.089-.332-.073-.332a9.7,9.7,0,0,1,.51,1.214,30.282,30.282,0,0,0,1.562,3.236,26.28,26.28,0,0,0,18.61,13.156,28.689,28.689,0,0,0,3.56.4A7.565,7.565,0,0,1,386.081,346.156Z" transform="translate(-354.226 -185.73)"/><path class="d" d="M440.85,288.742v-.275A1.091,1.091,0,0,1,440.85,288.742Z" transform="translate(-369.559 -178.174)"/><path class="d" d="M440.82,289.061v-.251A2.055,2.055,0,0,1,440.82,289.061Z" transform="translate(-369.554 -178.241)"/><path class="d" d="M440.9,418.214S421.558,351.3,421.186,349.2c-.332-1.9,8.714-48.094,10.025-60.076l-27.461.259v.194l-13.269.372,6.894,133.39,14.645.21-.623-44.881c7.2,21.118,16.312,44.97,16.312,44.97Z" transform="translate(-359.944 -178.301)"/><path class="d" d="M440.89,288.44Z" transform="translate(-369.567 -178.171)"/><path class="d" d="M440.89,288.47Z" transform="translate(-369.567 -178.177)"/><path class="a" d="M405.5,359.71c.04,0-.04.51-.081,1.432a27.449,27.449,0,0,0,.065,3.908,35.751,35.751,0,0,0,.979,5.7,57.367,57.367,0,0,0,2.322,6.708c1.812,4.725,3.423,9.013,4.58,12.137.542,1.513,1,2.759,1.335,3.7a8.746,8.746,0,0,1,.437,1.367,9.306,9.306,0,0,1-.591-1.311l-1.424-3.665c-1.222-3.083-2.88-7.347-4.685-12.072l-1.311-3.455a31.061,31.061,0,0,1-1-3.309,33.976,33.976,0,0,1-.89-5.777,23.991,23.991,0,0,1,.057-3.948c.049-.461.113-.809.162-1.06S405.488,359.7,405.5,359.71Z" transform="translate(-362.751 -191.775)"/><path class="a" d="M415.372,412.673c0-.4.251-14.661.251-14.661s-4.782-13.229-4.9-12.824S415.372,412.673,415.372,412.673Z" transform="translate(-363.807 -196.637)"/><path class="b" d="M438.076,226.322s-.809-1.918-2.33-14.022c-.655-5.267-4.24-8.528-8.091-10.518v-.073l-.34-.1a31.6,31.6,0,0,0-10.057-2.921l-13.577-.227s-9.418-.712-16.287,5.664c-2.249,2.087-4.563,20.778-4.563,20.778l6.8,2.427-.057-2.759s-.283,5.6,1.57,8.852,4.369,7.7,4.369,7.7l-2.9,13.577c-1.8,5.178-7.719,24.087-5.4,42.81,2.88,23.2,3.334,29.937,3.334,29.937l32.8,4.491s13.116-49.113,8.625-68.629c-3.091-13.4-5.445-12.776-6.2-15.681l.85-20.875Z" transform="translate(-358.484 -160.991)"/><path class="c" d="M424.351,256.367a4.493,4.493,0,0,1-1.044.21c-.672.113-1.659.235-2.88.364a82.245,82.245,0,0,1-9.572.388,80.984,80.984,0,0,1-9.556-.728c-1.214-.17-2.193-.332-2.864-.469a5.5,5.5,0,0,1-1.036-.243,4.728,4.728,0,0,1,1.06.081l2.88.332c2.427.267,5.793.542,9.523.607s7.1-.089,9.539-.267l2.889-.227A5.807,5.807,0,0,1,424.351,256.367Z" transform="translate(-361.265 -171.957)"/><path class="c" d="M434.477,301.91a3.694,3.694,0,0,1-.129.647l-.445,1.837c-.1.4-.21.809-.332,1.327s-.316,1-.494,1.545a37.252,37.252,0,0,1-1.335,3.73q-.413,1.036-.874,2.136c-.307.744-.7,1.481-1.076,2.257-.712,1.578-1.667,3.156-2.638,4.855a63.549,63.549,0,0,1-16.991,18.488c-1.618,1.1-3.107,2.185-4.612,3.034-.752.429-1.448.89-2.16,1.254l-2.055,1.052c-1.295.7-2.541,1.165-3.609,1.618-.542.218-1.036.445-1.5.623l-1.295.437-1.8.591a4.04,4.04,0,0,1-.631.186,4.315,4.315,0,0,1,.607-.267l1.764-.664,1.278-.477c.461-.178.947-.413,1.481-.647,1.06-.485,2.29-.971,3.568-1.683l2.031-1.068c.7-.372,1.4-.809,2.136-1.27,1.5-.858,2.978-1.942,4.563-3.042a65.2,65.2,0,0,0,16.927-18.383c.963-1.675,1.926-3.236,2.654-4.8.372-.809.809-1.5,1.092-2.233l.89-2.112c.607-1.335.987-2.605,1.384-3.7.194-.55.38-1.052.526-1.529l.372-1.311c.21-.761.388-1.367.518-1.812A3.394,3.394,0,0,1,434.477,301.91Z" transform="translate(-360.33 -180.742)"/><path class="e" d="M438.757,219.557a2.737,2.737,0,0,1-.51.291c-.34.186-.809.445-1.513.761a20.786,20.786,0,0,1-5.89,2.007,10.972,10.972,0,0,1-4.337-.243,7.971,7.971,0,0,1-2.233-.971,8.48,8.48,0,0,1-1.918-1.74,37.416,37.416,0,0,1-2.9-4.652,7.87,7.87,0,0,0-4.046-3.843,9.815,9.815,0,0,0-5.664.348,21.752,21.752,0,0,1-5.364,1.157,7.824,7.824,0,0,1-8.091-8.31,8.141,8.141,0,0,1,.6-2.63,6.012,6.012,0,0,1,1.222-1.942,11.856,11.856,0,0,0-1.068,2,8.4,8.4,0,0,0-.518,2.581,7.669,7.669,0,0,0,7.873,7.913,21.586,21.586,0,0,0,5.259-1.165,17.982,17.982,0,0,1,2.848-.623,6.886,6.886,0,0,1,3.026.267,6.4,6.4,0,0,1,2.541,1.675,12.855,12.855,0,0,1,1.723,2.363,39.045,39.045,0,0,0,2.856,4.612,7.517,7.517,0,0,0,3.948,2.63,10.907,10.907,0,0,0,4.2.275,21.781,21.781,0,0,0,5.9-1.812l1.545-.688A3.315,3.315,0,0,1,438.757,219.557Z" transform="translate(-361.05 -161.248)"/><path class="e" d="M418.7,255.128a3.779,3.779,0,0,0,.574-1.359,4.45,4.45,0,0,0-1.262-3.69,5.745,5.745,0,0,0-2.338-1.456,14.567,14.567,0,0,0-3.156-.688c-1.141-.154-2.355-.243-3.6-.518a8.746,8.746,0,0,1-3.633-1.562,5.525,5.525,0,0,1-1.343-1.537,10.524,10.524,0,0,1-.809-1.78,18.956,18.956,0,0,0-1.319-3.334,5.947,5.947,0,0,0-4.919-2.9,6.149,6.149,0,0,0-3.787,1.222,8.747,8.747,0,0,0-1.117,1.011,1.685,1.685,0,0,1,.218-.332,5.45,5.45,0,0,1,.809-.809,6.109,6.109,0,0,1,9.143,1.618,18.383,18.383,0,0,1,1.376,3.382,6.554,6.554,0,0,0,2.015,3.139,8.454,8.454,0,0,0,3.455,1.481c1.214.275,2.427.372,3.568.534,2.282.291,4.45.939,5.664,2.33a4.563,4.563,0,0,1,1.2,3.924,2.759,2.759,0,0,1-.461,1.044C418.78,255.039,418.7,255.144,418.7,255.128Z" transform="translate(-360.232 -168.161)"/><path class="e" d="M434.708,320.586a11.474,11.474,0,0,0-3.236.138c-1.028.186-2.257.55-3.69.971a17.679,17.679,0,0,1-5.008.9,14.7,14.7,0,0,1-6.06-1.181,12.637,12.637,0,0,1-5.478-4.458,11.328,11.328,0,0,1-1.756-7.573,10.809,10.809,0,0,1,1.246-3.989,9.773,9.773,0,0,1,2.856-3.236c1.149-.85,2.427-1.618,3-2.8a3.034,3.034,0,0,0,.275-1.9,7.219,7.219,0,0,0-.647-1.869,11.006,11.006,0,0,1-1.351-3.787,7.946,7.946,0,0,1,.566-3.835,9.337,9.337,0,0,1,4.96-4.968,13.869,13.869,0,0,1,6.068-1.084,31.178,31.178,0,0,0,5.041-.146,8.229,8.229,0,0,0,3.471-1.359,5.114,5.114,0,0,0,1.618-1.748c.259-.485.324-.809.348-.769a2.85,2.85,0,0,1-.267.809,5.007,5.007,0,0,1-1.618,1.853,8.423,8.423,0,0,1-3.552,1.464,31.374,31.374,0,0,1-5.081.21,13.593,13.593,0,0,0-5.923,1.108,8.989,8.989,0,0,0-4.749,4.79,7.59,7.59,0,0,0-.526,3.641,10.689,10.689,0,0,0,1.327,3.657,7.66,7.66,0,0,1,.688,1.982,3.543,3.543,0,0,1-.307,2.152,9.491,9.491,0,0,1-3.131,2.953,9.709,9.709,0,0,0-3.948,6.91,11.036,11.036,0,0,0,1.675,7.282,12.217,12.217,0,0,0,5.3,4.345,14.241,14.241,0,0,0,5.907,1.206,17.871,17.871,0,0,0,4.952-.809,33.842,33.842,0,0,1,3.73-.906,9.409,9.409,0,0,1,2.427-.105,4.953,4.953,0,0,1,.874.154Z" transform="translate(-363.555 -176.156)"/><path class="e" d="M419.738,358.08s.04-.558.065-1.57a9.411,9.411,0,0,0-.736-4.143,4.1,4.1,0,0,0-1.966-2,7.6,7.6,0,0,0-3.236-.485,9.524,9.524,0,0,1-3.795-.477,4.4,4.4,0,0,1-1.618-1.27,9.768,9.768,0,0,1-1.117-1.772,14.65,14.65,0,0,0-2.071-3.406,10.276,10.276,0,0,0-2.945-2.314,9.806,9.806,0,0,0-6.076-1.084,10.518,10.518,0,0,0-3.981,1.408c-.866.526-1.286.906-1.311.874a1.512,1.512,0,0,1,.291-.291,6.746,6.746,0,0,1,.93-.72,10.227,10.227,0,0,1,4.046-1.57,10.089,10.089,0,0,1,6.3,1.036,10.785,10.785,0,0,1,3.01,2.371,10.678,10.678,0,0,1,1.181,1.618c.34.6.631,1.222.955,1.829a5.583,5.583,0,0,0,2.549,2.856,9.417,9.417,0,0,0,3.633.469,7.832,7.832,0,0,1,3.414.558,4.361,4.361,0,0,1,2.087,2.185,9.118,9.118,0,0,1,.631,4.28,10.061,10.061,0,0,1-.137,1.165A1.457,1.457,0,0,1,419.738,358.08Z" transform="translate(-360.034 -187.847)"/><path class="e" d="M399.738,279.86s-.235.5-.663,1.384a10.794,10.794,0,0,0-1.214,3.932,5.226,5.226,0,0,0,.591,2.71,21.9,21.9,0,0,0,1.845,2.727,9.782,9.782,0,0,1,1.829,7.347,8.3,8.3,0,0,1-4.45,6.06,7.453,7.453,0,0,1-3.285.809,7.1,7.1,0,0,1-6-3.423,4.994,4.994,0,0,1-.469-1.052,2.3,2.3,0,0,1-.1-.388c.049,0,.186.526.7,1.351a7.031,7.031,0,0,0,3.115,2.605,6.756,6.756,0,0,0,2.751.558,7.16,7.16,0,0,0,3.107-.809,7.937,7.937,0,0,0,4.207-5.785,9.442,9.442,0,0,0-1.723-7.047,22.435,22.435,0,0,1-1.845-2.791,5.47,5.47,0,0,1-.566-2.889,10.186,10.186,0,0,1,1.351-3.989c.243-.437.445-.761.583-.987S399.722,279.852,399.738,279.86Z" transform="translate(-359.436 -176.533)"/><path class="c" d="M432.454,240.5a4.044,4.044,0,0,1-.105-.963c0-.712-.081-1.618-.13-2.63-.113-2.314-.259-5.34-.421-8.682s-.267-6.473-.3-8.69V216.9a4.854,4.854,0,0,1,.065-.963,4.05,4.05,0,0,1,.105.963c0,.712.073,1.618.129,2.63.113,2.314.259,5.34.421,8.682s.267,6.473.3,8.69v2.638a4.79,4.79,0,0,1-.065.963Z" transform="translate(-367.774 -164.331)"/><path class="d" d="M422.363,233.805s0,14.491-3.625,15.867c-9.871,3.73-21.676,2.872-25.827,2.484-.5-.348-1.076-.769-1.723-1.3a6.263,6.263,0,0,1-1.424-1.618,10.115,10.115,0,0,1-1.181-2.427.809.809,0,0,0-1.529-.3,6.865,6.865,0,0,0,1.392,5.381,1.084,1.084,0,0,1-.6,1.537c-1.659.809-7.541,3.3-8.471,3.86s-1.618,1.327-.672,1.384a49.245,49.245,0,0,0,5.874-1.165s-6.473,1.473-6.246,2.427c.178.647,1.982.809,6.19-.615,0,0-5.356,1.246-5.866,1.877-1.149,1.408,5.308,0,5.308,0-4.515,1.052-4.491.809-4.474,1.432,0,.477,1.06.566,3.576.34,2.039-.178,4.183.049,7.282-.057h0s40.3,7.185,43.967-10.607c1.982-9.588,1.618-13.132,2.047-19.322" transform="translate(-357.609 -167.584)"/><path class="a" d="M387.216,267.06a11.966,11.966,0,0,1-3.058.85,12.178,12.178,0,0,1-3.147.437,12.232,12.232,0,0,1,3.058-.809A12.946,12.946,0,0,1,387.216,267.06Z" transform="translate(-358.136 -174.09)"/><path class="a" d="M386.862,264.87a13.625,13.625,0,0,1-3.236,1.084,13.381,13.381,0,0,1-3.326.68,27.389,27.389,0,0,1,6.538-1.764Z" transform="translate(-358.001 -173.672)"/><path class="a" d="M386.657,262.59a12.184,12.184,0,0,1-3.018,1.084,12.549,12.549,0,0,1-3.139.672,11.972,11.972,0,0,1,3.026-1.076,12.859,12.859,0,0,1,3.131-.68Z" transform="translate(-358.039 -173.236)"/><path class="c" d="M401.359,158.59a9.232,9.232,0,0,0-.971,5.211c.129,1.173.445,2.427-.2,3.439-.809,1.189-2.638,1.286-3.414,2.484-1.117,1.731.85,4.167-.049,6.02-.591,1.23-2.144,1.618-3.2,2.427a4.313,4.313,0,0,0-.987,5.186,9.066,9.066,0,0,0,3.69,3.277l3.277,1.974a3.05,3.05,0,0,0,1.909.623c1.2-.17,1.764-1.618,2.848-2.176,1.343-.672,2.913.259,4.41.356a3.924,3.924,0,0,0,4.175-4.175" transform="translate(-360.248 -153.384)"/><path class="d" d="M407.032,192.54c.364-3.77.672-7.751.672-7.751s-4.8-1.286-5.162-7.678c-.364-6.133,2.007-19.993,2.007-19.993h0a18.31,18.31,0,0,1,19.8,6.635h0l-3.423,30.576a6.611,6.611,0,0,1-7.565,5.583h0A7.039,7.039,0,0,1,407.032,192.54Z" transform="translate(-362.239 -152.963)"/><path class="c" d="M404.4,170.6a.82.82,0,1,0,.914-.647A.809.809,0,0,0,404.4,170.6Z" transform="translate(-362.6 -155.55)"/><path class="c" d="M404.407,169.473c.089.121.744-.275,1.618-.186s1.473.591,1.578.494,0-.251-.291-.477a2.168,2.168,0,0,0-1.246-.526,2.193,2.193,0,0,0-1.311.283C404.472,169.239,404.359,169.425,404.407,169.473Z" transform="translate(-362.601 -155.327)"/><path class="c" d="M415.639,172.055a.815.815,0,1,0,.914-.647A.809.809,0,0,0,415.639,172.055Z" transform="translate(-364.746 -155.829)"/><path class="c" d="M415.638,170.981c.1.113.752-.283,1.618-.194s1.473.591,1.618.494,0-.243-.291-.477a2.282,2.282,0,0,0-1.246-.526,2.177,2.177,0,0,0-1.311.283C415.711,170.747,415.6,170.925,415.638,170.981Z" transform="translate(-364.745 -155.613)"/><path class="c" d="M410.416,177.073a5.592,5.592,0,0,0-1.392-.4c-.218-.049-.429-.113-.453-.267a1.157,1.157,0,0,1,.218-.647l.809-1.618a28.321,28.321,0,0,0,1.918-4.3,30.318,30.318,0,0,0-2.257,4.135q-.421.858-.809,1.618a1.27,1.27,0,0,0-.2.866.574.574,0,0,0,.332.364,1.53,1.53,0,0,0,.372.089,5.663,5.663,0,0,0,1.465.162Z" transform="translate(-363.334 -155.531)"/><path class="a" d="M408.915,191.154a16.182,16.182,0,0,0,8.706-1.424s-2.484,4.151-8.771,2.929Z" transform="translate(-363.451 -159.328)"/><path class="a" d="M411.109,181.316a1.618,1.618,0,0,1,1.473-.453,1.424,1.424,0,0,1,.939.631.906.906,0,0,1,0,1.052,1.06,1.06,0,0,1-1.173.178,3.383,3.383,0,0,1-1.052-.809,1.06,1.06,0,0,1-.227-.283.291.291,0,0,1,0-.324" transform="translate(-363.865 -157.629)"/><path class="c" d="M413.288,179.84c-.138,0-.235.922-1.117,1.521s-1.877.388-1.9.518.21.21.639.259a2.355,2.355,0,0,0,1.578-.38,2.1,2.1,0,0,0,.874-1.278C413.466,180.083,413.385,179.84,413.288,179.84Z" transform="translate(-363.721 -157.44)"/><path class="f" d="M425.577,173.794a3.883,3.883,0,0,1,2.031.324,2.694,2.694,0,0,1,1.359,1.5,2.808,2.808,0,0,1-.186,2.031,4.7,4.7,0,0,1-1.319,1.618,3.237,3.237,0,0,1-1.311.7,1.513,1.513,0,0,1-1.392-.356" transform="translate(-366.488 -156.282)"/><path class="g" d="M425.727,178.17c-.081,0,.178.453.809.348a1.351,1.351,0,0,0,.809-.591,3.082,3.082,0,0,0,.453-1.092,1.8,1.8,0,0,0-.17-1.222,1.206,1.206,0,0,0-.809-.615c-.631-.073-.874.348-.809.364a1.2,1.2,0,0,1,.72,0,1.149,1.149,0,0,1,.574,1.375c-.146.688-.469,1.3-.858,1.424S425.775,178.113,425.727,178.17Z" transform="translate(-366.67 -156.514)"/><path class="c" d="M407,154.7a4.628,4.628,0,0,0,1.554,5.324c1.618,1.173,3.795,1.125,5.769,1.464s4.175,1.529,4.313,3.528c.081,1.214-.647,2.427-.21,3.6.51,1.327,2.322,1.715,2.961,2.986,1.028,2.039-1.618,4.272-1.27,6.521.227,1.335,1.481,2.306,1.756,3.633.4,1.885-1.254,4.118,0,5.607.931,1.149,2.775.809,4.046.073s2.711-1.618,4.143-1.23a12.134,12.134,0,0,1,2.306,1.311,4.11,4.11,0,0,0,5.834-4.855,11.448,11.448,0,0,0-1.853-3.034,4.58,4.58,0,0,1-1.084-3.325,7.93,7.93,0,0,1,1.238-2.427,2.686,2.686,0,0,0,.332-2.589c-.809-1.408-3.107-1.019-4.11-2.266-1.375-1.723,1.076-4.377.154-6.376-1.052-2.266-5.17-1.384-6.23-3.641a12.087,12.087,0,0,1-.372-2.686c-.437-2.031-2.735-3.107-4.806-3.236s-4.167.372-6.214.065c-1.125-.17-2.2-.574-3.317-.809a5.057,5.057,0,0,0-3.334.227,2.5,2.5,0,0,0-1.408,2.8" transform="translate(-363.042 -152.156)"/><path class="c" d="M407.542,159.211a7.743,7.743,0,0,1-5.227,4.4,18.613,18.613,0,0,1,0-4.693,7.388,7.388,0,0,1,2.015-4.175,4.693,4.693,0,0,1,4.321-1.27" transform="translate(-362.175 -152.387)"/><path class="b" d="M434.187,188.057a.987.987,0,0,0,.324-.38,1.473,1.473,0,0,0-.121-1.359,2.024,2.024,0,0,0-.736-.688,6.472,6.472,0,0,0-1.141-.469,6.473,6.473,0,0,1-1.327-.542,2.015,2.015,0,0,1-1.02-1.246,2.565,2.565,0,0,1,.34-1.74c.275-.55.639-1.084.882-1.683a4.417,4.417,0,0,0-.437-3.965,4.045,4.045,0,0,0-1.618-1.5c-.68-.34-1.464-.526-2.209-.85a3.326,3.326,0,0,1-1.044-.7,2.071,2.071,0,0,1-.566-1.141,8.627,8.627,0,0,1,.227-2.541,4.7,4.7,0,0,0-.324-2.427,6.367,6.367,0,0,0-1.343-2.015,9.37,9.37,0,0,0-3.965-2.257,36.089,36.089,0,0,0-4.1-.914,26.3,26.3,0,0,1-3.584-.809,10.374,10.374,0,0,1-2.735-1.327,7.5,7.5,0,0,1-1.667-1.57,5.76,5.76,0,0,1-.728-1.254,3.967,3.967,0,0,1-.162-.477s.065.162.194.461a5.815,5.815,0,0,0,.752,1.23,8.9,8.9,0,0,0,4.385,2.816,27.417,27.417,0,0,0,3.568.809,35.306,35.306,0,0,1,4.126.9,9.483,9.483,0,0,1,4.046,2.3,6.473,6.473,0,0,1,1.384,2.063,4.895,4.895,0,0,1,.332,2.533,8.836,8.836,0,0,0-.227,2.492,1.966,1.966,0,0,0,.518,1.044,2.985,2.985,0,0,0,.987.647c.728.324,1.5.51,2.217.858a4.369,4.369,0,0,1,1.683,1.57,4.6,4.6,0,0,1,.429,4.11c-.251.623-.623,1.149-.89,1.691a2.427,2.427,0,0,0-.34,1.618,1.9,1.9,0,0,0,.947,1.173,6.6,6.6,0,0,0,1.3.55,5.987,5.987,0,0,1,1.149.494,2.063,2.063,0,0,1,.761.728,1.513,1.513,0,0,1,.089,1.416A.728.728,0,0,1,434.187,188.057Z" transform="translate(-363.122 -152.929)"/><path class="b" d="M432.783,168.112h-.316a7.69,7.69,0,0,1-.906.129,4.506,4.506,0,0,1-1.448-.057,2.872,2.872,0,0,1-1.618-.979,5.662,5.662,0,0,1-1.036-2.088,23.355,23.355,0,0,0-.753-2.541,5.964,5.964,0,0,0-1.74-2.282,9.176,9.176,0,0,0-2.727-1.5,24.938,24.938,0,0,0-5.979-.971c-.931-.081-1.821-.17-2.646-.316a13.957,13.957,0,0,1-2.257-.558,8.69,8.69,0,0,1-2.929-1.618,5.309,5.309,0,0,1-.809-.906l.057.057.162.17a6.751,6.751,0,0,0,.664.623,8.7,8.7,0,0,0,2.921,1.57,14.7,14.7,0,0,0,2.241.534c.809.138,1.707.218,2.638.291a24.443,24.443,0,0,1,6.028.971,9.247,9.247,0,0,1,2.775,1.529,6.077,6.077,0,0,1,1.78,2.355,22.06,22.06,0,0,1,.744,2.557,5.437,5.437,0,0,0,1,2.047,2.8,2.8,0,0,0,1.562.971,4.935,4.935,0,0,0,1.424.081,6.519,6.519,0,0,0,.906-.089Z" transform="translate(-363.216 -152.59)"/><path class="b" d="M396.9,190.269h-.121a2.377,2.377,0,0,1-.34-.178,3.438,3.438,0,0,1-1-.955,3.706,3.706,0,0,1-.688-1.942,3.536,3.536,0,0,1,.809-2.387,3.7,3.7,0,0,1,2.144-1.319,12.946,12.946,0,0,0,2.015-.283,1.562,1.562,0,0,0,.939-.89,1.229,1.229,0,0,0,.049-.485v.121a.93.93,0,0,1,0,.388,1.618,1.618,0,0,1-.963.987,10.785,10.785,0,0,1-2.031.324,3.625,3.625,0,0,0-2.039,1.27,3.423,3.423,0,0,0-.809,2.266,3.641,3.641,0,0,0,.623,1.877,3.722,3.722,0,0,0,.939.971A2.352,2.352,0,0,1,396.9,190.269Z" transform="translate(-360.759 -157.82)"/><path class="d" d="M401.57,198.569c-.526.089.113,17.7,11.651,18.375,10.923.623,11.813-17.38,11.813-17.38S411.822,196.789,401.57,198.569Z" transform="translate(-362.037 -160.902)"/><path class="h" d="M396.664,456.342V454.78h14.718l.04,5.154-.906.065c-4.046.235-20.576.922-23.278.113C384.212,459.182,396.664,456.342,396.664,456.342Z" transform="translate(-359.235 -209.923)"/><g class="i" transform="translate(46.864 245.672)"><path class="e" d="M410.66,460.005a5.122,5.122,0,0,1,1.861-3.131,5,5,0,0,1,3.423-1.076v4.094Z" transform="translate(-410.66 -455.788)"/></g><g class="i" transform="translate(27.479 248.02)"><path class="e" d="M390.56,458.69s-4.353,1.278-3.811,1.99,17.275.655,24.654,0v-.324l-19.516.243S391.418,458.722,390.56,458.69Z" transform="translate(-386.702 -458.69)"/></g><path class="c" d="M411.618,460.71h-.251l-.72.049-2.654.186c-2.249.089-5.356.178-8.795.194s-6.546-.04-8.8-.105l-2.662-.105-.72-.04a.9.9,0,0,1-.251,0,1.159,1.159,0,0,1,.251,0h3.414c2.249.04,5.356.073,8.787.057s6.538-.081,8.787-.138l2.662-.073h.979Z" transform="translate(-359.236 -211.055)"/><path class="c" d="M392.756,460.762a6.1,6.1,0,0,0-.5-1.27,5.849,5.849,0,0,0-.914-1.011,1.957,1.957,0,0,1,1.068.922A1.982,1.982,0,0,1,392.756,460.762Z" transform="translate(-360.108 -210.63)"/><path class="c" d="M398.235,458.283a1.888,1.888,0,0,1-.461-.558c-.21-.332-.356-.631-.316-.655s.251.219.461.558S398.276,458.259,398.235,458.283Z" transform="translate(-361.275 -210.36)"/><path class="c" d="M399.663,457.6a2.482,2.482,0,0,1-.518-.348c-.259-.227-.429-.437-.4-.469s.267.113.518.34S399.7,457.556,399.663,457.6Z" transform="translate(-361.522 -210.304)"/><path class="c" d="M400.439,456.059a1.748,1.748,0,0,1-.761.1,1.691,1.691,0,0,1-.769-.081,1.8,1.8,0,0,1,.769-.1C400.1,455.994,400.439,455.994,400.439,456.059Z" transform="translate(-361.553 -210.151)"/><path class="c" d="M400.715,454.869a1.538,1.538,0,0,1-.85.251,1.441,1.441,0,0,1-.866-.146,4.865,4.865,0,0,1,.866-.065,4.984,4.984,0,0,1,.849-.04Z" transform="translate(-361.57 -209.94)"/><path class="c" d="M397.149,456.7a2.613,2.613,0,0,1-.939,0,5.513,5.513,0,0,1-1-.219,2.6,2.6,0,0,1-.575-.235.461.461,0,0,1-.235-.291.356.356,0,0,1,.138-.372,1.756,1.756,0,0,1,2.427,1.117.7.7,0,0,1,0,.259,2.51,2.51,0,0,0-.437-.809,1.619,1.619,0,0,0-.809-.518,1.473,1.473,0,0,0-1.125.081c-.146.105-.089.283.081.38a2.51,2.51,0,0,0,.526.227,6.387,6.387,0,0,0,.971.251A5.361,5.361,0,0,0,397.149,456.7Z" transform="translate(-360.69 -210.045)"/><path class="c" d="M397.469,456.62a.914.914,0,0,1-.113-.655,1.545,1.545,0,0,1,.259-.688.922.922,0,0,1,.809-.477.364.364,0,0,1,.291.429,1.085,1.085,0,0,1-.154.421,2.888,2.888,0,0,1-.445.574,1.326,1.326,0,0,1-.534.38,6.126,6.126,0,0,0,.445-.469,3,3,0,0,0,.388-.566c.129-.194.218-.558,0-.6s-.477.218-.623.4a1.478,1.478,0,0,0-.259.615,3.459,3.459,0,0,0-.065.631Z" transform="translate(-361.253 -209.927)"/><path class="c" d="M415.86,455.721s-.421,0-1.076.04a4.854,4.854,0,0,0-2.363.987,4.741,4.741,0,0,0-1.489,2.088c-.218.631-.243,1.052-.275,1.052a.946.946,0,0,1,0-.3,3.955,3.955,0,0,1,.154-.809,4.45,4.45,0,0,1,3.932-3.164,4.167,4.167,0,0,1,.809,0A.808.808,0,0,1,415.86,455.721Z" transform="translate(-363.794 -210.079)"/><path class="c" d="M407.37,459.246a8.785,8.785,0,0,1-2.144.219,8.645,8.645,0,0,1-2.136-.162c0-.057.955,0,2.136,0S407.362,459.19,407.37,459.246Z" transform="translate(-362.351 -210.773)"/><path class="c" d="M411.83,459.228s-.081.2-.178.421-.146.413-.2.413-.073-.235.04-.486S411.8,459.188,411.83,459.228Z" transform="translate(-363.939 -210.771)"/><path class="c" d="M413.129,457.558a1.064,1.064,0,0,1-.21.34c-.146.154-.307.251-.34.218s.057-.186.21-.34S413.088,457.517,413.129,457.558Z" transform="translate(-364.161 -210.452)"/><path class="c" d="M414.972,456.771c0,.049-.21.049-.421.121s-.372.194-.413.162.089-.235.356-.324S414.988,456.723,414.972,456.771Z" transform="translate(-364.459 -210.288)"/><path class="c" d="M416.426,456.412c0,.049-.065.121-.186.17s-.235.049-.251,0,.065-.121.186-.17S416.41,456.372,416.426,456.412Z" transform="translate(-364.813 -210.229)"/><path class="h" d="M435.414,455.361l-.664-1.416,13.3-6.295,2.233,4.644-.809.437c-3.552,1.942-18.2,9.62-21,10.049C425.381,463.25,435.414,455.361,435.414,455.361Z" transform="translate(-367.085 -208.562)"/><g class="i" transform="translate(78.171 239.856)"><path class="e" d="M449.537,454.652a5.106,5.106,0,0,1,.348-3.625,4.96,4.96,0,0,1,2.63-2.427l1.764,3.7Z" transform="translate(-449.353 -448.6)"/></g><g class="i" transform="translate(60.804 243.465)"><path class="e" d="M430.608,460.447s-3.4,3.01-2.6,3.423,15.891-6.788,22.275-10.518l-.162-.291-17.542,8.528S431.393,460.107,430.608,460.447Z" transform="translate(-427.889 -453.06)"/></g><path class="c" d="M450.334,452.9a2.041,2.041,0,0,1-.21.129l-.639.356L447.13,454.6c-1.99,1.044-4.766,2.427-7.865,3.932s-5.939,2.759-8,3.657l-2.427,1.044-.663.275a1.618,1.618,0,0,1-.243.081l.227-.113.655-.307,2.427-1.092c2.047-.93,4.855-2.225,7.97-3.706s5.882-2.864,7.889-3.876l2.379-1.206.655-.316Z" transform="translate(-367.093 -209.565)"/><path class="c" d="M433.287,463.5a6.182,6.182,0,0,0-1-.93,5.374,5.374,0,0,0-1.262-.526,1.958,1.958,0,0,1,1.359.38,2.007,2.007,0,0,1,.9,1.076Z" transform="translate(-367.685 -211.309)"/><path class="c" d="M437.189,458.927a1.749,1.749,0,0,1-.663-.307c-.34-.21-.591-.421-.566-.461s.324.1.663.307S437.214,458.887,437.189,458.927Z" transform="translate(-368.625 -210.567)"/><path class="c" d="M438.183,457.694a1.181,1.181,0,0,1-.607-.089c-.332-.1-.583-.218-.566-.259a1.319,1.319,0,0,1,.615.089C437.948,457.524,438.2,457.646,438.183,457.694Z" transform="translate(-368.826 -210.41)"/><path class="c" d="M438.245,455.83a1.951,1.951,0,0,1-.655.421,1.788,1.788,0,0,1-.72.259,1.868,1.868,0,0,1,.647-.421A1.8,1.8,0,0,1,438.245,455.83Z" transform="translate(-368.8 -210.124)"/><path class="c" d="M437.983,454.61a1.6,1.6,0,0,1-.663.591,1.522,1.522,0,0,1-.809.275q.756-.427,1.5-.866Z" transform="translate(-368.731 -209.891)"/><path class="c" d="M435.564,457.865a2.833,2.833,0,0,1-.85.4,5.4,5.4,0,0,1-1,.235,3,3,0,0,1-.615,0,.518.518,0,0,1-.34-.162.372.372,0,0,1,0-.4,1.74,1.74,0,0,1,2.694,0,.535.535,0,0,1,.129.218,2.664,2.664,0,0,0-.736-.542,1.684,1.684,0,0,0-.947-.13,1.432,1.432,0,0,0-.979.558c-.089.162.04.291.235.316a2.767,2.767,0,0,0,.574,0,6.532,6.532,0,0,0,.979-.194C435.224,457.945,435.555,457.792,435.564,457.865Z" transform="translate(-368.003 -210.403)"/><path class="c" d="M435.891,457.645a.947.947,0,0,1-.38-.542,1.618,1.618,0,0,1-.065-.736.955.955,0,0,1,.5-.769.38.38,0,0,1,.453.267.945.945,0,0,1,0,.445,2.739,2.739,0,0,1-.154.712,1.311,1.311,0,0,1-.324.574,5.844,5.844,0,0,0,.2-.615,3.132,3.132,0,0,0,.113-.68c0-.235,0-.6-.275-.534s-.34.4-.388.631a1.62,1.62,0,0,0,0,.664A4.147,4.147,0,0,0,435.891,457.645Z" transform="translate(-368.525 -210.077)"/><path class="c" d="M452.385,448.59a5.75,5.75,0,0,0-.963.5,4.563,4.563,0,0,0-2.144,4.41c.065.664.227,1.052.194,1.068a1.011,1.011,0,0,1-.121-.267,3.836,3.836,0,0,1-.2-.809,4.392,4.392,0,0,1,2.945-4.863A.9.9,0,0,1,452.385,448.59Z" transform="translate(-371.134 -208.742)"/><path class="c" d="M445.861,455.469a8.157,8.157,0,0,1-1.845,1.109,8,8,0,0,1-2.007.809c0-.048.874-.4,1.934-.922S445.829,455.421,445.861,455.469Z" transform="translate(-369.781 -210.054)"/><path class="c" d="M449.96,453.94c.049,0,0,.21,0,.453s.04.437,0,.461-.17-.178-.17-.461S449.887,453.915,449.96,453.94Z" transform="translate(-371.266 -209.763)"/><path class="c" d="M450.394,451.86c.049,0,0,.194-.049.4s-.162.356-.21.34,0-.194.049-.4S450.346,451.844,450.394,451.86Z" transform="translate(-371.328 -209.366)"/><path class="c" d="M451.707,450.345c0,.049-.17.129-.332.291s-.251.332-.3.316,0-.251.178-.445S451.7,450.3,451.707,450.345Z" transform="translate(-371.508 -209.072)"/><path class="c" d="M452.85,449.437c.04,0,0,.138-.1.227s-.186.146-.227.113,0-.138.1-.235S452.818,449.4,452.85,449.437Z" transform="translate(-371.785 -208.901)"/></svg>