<svg xmlns="http://www.w3.org/2000/svg" width="72.814" height="81.168" viewBox="0 0 72.814 81.168"><defs><style>.a{fill:none;}.a,.b,.c,.d,.e{stroke:#455a64;stroke-width:0.5px;}.b{fill:#00077b;}.c{fill:#455a64;}.d{fill:#37474f;}.e{fill:#263238;}</style></defs><g transform="translate(0.25 0.25)"><path class="a" d="M399.673,282.59h0l-7.115-4.086h0c-.28-.152-.695-.047-1.167.333-.263.2-.525.391-.794.584l-.292.187-.525.333-.379.21c-.152.088-.309.181-.467.263s-.286.14-.432.21-.28.146-.426.21l-.479.2-.4.163q-.263.105-.525.193l-.362.134-.584.169-.333.1c-.2.058-.4.105-.584.152l-.3.07-.642.128-.263.047-.683.1H382.7c-.239,0-.479.053-.718.064H381.8a6.4,6.4,0,0,0-.747.029H379.99c-.269,0-.531-.035-.8-.058h-.076l-.823-.105h-.041l-.689-.134a2.12,2.12,0,0,0-.5-.4h0l-.082-.047h0l-7-4.051h0c-.584-.333-1.121-.093-1.459.759-4.594,11.394-14.371,22.952-20.886,25.841a2.51,2.51,0,0,0-.374.193c-.082.047-.152.1-.233.152a.478.478,0,0,0-.1.076,2.72,2.72,0,0,0-.28.233h0c-.093.093-.187.187-.274.292h0a2.732,2.732,0,0,0-.724,1.856l.94,25.6c0,7.46,3.175,15.34,9.655,19.105h0l7.11,4.086h0l.093.053h0a17.862,17.862,0,0,0,10.8,2.113,7,7,0,0,0,3.712-1.85c14.214-14.7,21.142-34.638,21.142-45.641l.94-26.77C400.065,283.092,399.924,282.736,399.673,282.59Z" transform="translate(-345.609 -277.418)"/><path class="b" d="M363.121,375.1l-6.94-4.01h0c-6.474-3.765-9.655-11.645-9.655-19.105l-.946-25.62a2.919,2.919,0,0,1,1.167-2.288,3.786,3.786,0,0,0-.432.432l7.11,4.086a2.72,2.72,0,0,0-.724,1.868l.934,25.6C353.63,363.493,356.758,371.315,363.121,375.1Z" transform="translate(-345.58 -296.832)"/><path class="b" d="M422.428,283.269c-.274-.146-.683-.035-1.167.344-6.421,4.892-15.965,4.9-20.833-.771l-.088-.1a17.313,17.313,0,0,0,13.811-3.24c.5-.385.911-.484,1.167-.333h0Z" transform="translate(-368.375 -278.109)"/><path class="b" d="M377.48,281.585h0c-.543-.257-1.039,0-1.36.806-4.588,11.4-14.371,22.952-20.892,25.841a3.72,3.72,0,0,0-1.278.957l-7.11-4.086a3.779,3.779,0,0,1,.432-.432l.158-.128a1.652,1.652,0,0,0,.163-.117l.175-.105a2.48,2.48,0,0,1,.35-.181c6.514-2.889,16.3-14.447,20.886-25.847.245-.584.584-.893.975-.893a.934.934,0,0,1,.485.14Z" transform="translate(-346.104 -277.4)"/><path class="c" d="M445.793,326.795,442,324.6,427.12,359.664l2.539,1.465Z" transform="translate(-379.523 -297.048)"/><path class="c" d="M414.88,367.129l-3.8-2.189L407,373.573l3.8,2.189Z" transform="translate(-371.148 -313.841)"/><path class="d" d="M424.969,372.974,413.51,360.535l4.08-8.633,6.4,10.793,16.134-34.335,5.983,5.837Z" transform="translate(-373.858 -298.613)"/><path class="e" d="M407,379.73l3.8,2.189,11.459,12.439-3.794-2.166Z" transform="translate(-371.148 -319.998)"/></g></svg>